<?xml version="1.0" encoding="utf-8"?>
<!-- Generator: Adobe Illustrator 21.0.0, SVG Export Plug-In . SVG Version: 6.00 Build 0)  -->
<svg version="1.1" id="on" xmlns="http://www.w3.org/2000/svg" xmlns:xlink="http://www.w3.org/1999/xlink" x="0px" y="0px"
	 viewBox="0 0 239 70" style="enable-background:new 0 0 239 70;" xml:space="preserve">
<style type="text/css">
	.st0{fill:#7D0000;}
</style>
<path class="st0" d="M229,0H19C13.5,0,9,4.5,9,10v5H3c-1.7,0-3,1.3-3,3v34c0,1.7,1.3,3,3,3h6v5c0,5.5,4.5,10,10,10h210
	c5.5,0,10-4.5,10-10V10C239,4.5,234.5,0,229,0z M229,52c0,4.4-3.6,8-8,8H27c-4.4,0-8-3.6-8-8V18c0-4.4,3.6-8,8-8h194
	c4.4,0,8,3.6,8,8V52z"/>
</svg>
