<svg xmlns="http://www.w3.org/2000/svg" width="83" height="18.563" viewBox="0 0 83 18.563">
  <metadata><?xpacket begin="﻿" id="W5M0MpCehiHzreSzNTczkc9d"?>
<x:xmpmeta xmlns:x="adobe:ns:meta/" x:xmptk="Adobe XMP Core 5.6-c138 79.159824, 2016/09/14-01:09:01        ">
   <rdf:RDF xmlns:rdf="http://www.w3.org/1999/02/22-rdf-syntax-ns#">
      <rdf:Description rdf:about=""/>
   </rdf:RDF>
</x:xmpmeta>
                                                                                                    
                                                                                                    
                                                                                                    
                                                                                                    
                                                                                                    
                                                                                                    
                                                                                                    
                                                                                                    
                                                                                                    
                                                                                                    
                                                                                                    
                                                                                                    
                                                                                                    
                                                                                                    
                                                                                                    
                                                                                                    
                                                                                                    
                                                                                                    
                                                                                                    
                                                                                                    
                           
<?xpacket end="w"?></metadata>
<defs>
    <style>
      .cls-1 {
        fill: #7d0000;
        fill-rule: evenodd;
      }
    </style>
  </defs>
  <path id="中獎名單" class="cls-1" d="M1482.54,55.666l1.96-11.149h-6.88l0.54-3.087h-4.07l-0.55,3.087h-6.84l-1.97,11.149h6.85l-0.77,4.346h4.07l0.77-4.346h6.89Zm-3.64-2.016h-2.89l1.25-7.118h2.9Zm-6.97,0h-2.94l1.26-7.118h2.94Zm33.11-3.989,0.3-1.722h-0.78l0.26-1.47h-3.25l4.06-2.666L1505.95,42h-4.98l0.6-.546h-4.2l-2.75,2.54,0.44-2.5h-3.53l-0.49,2.751h-0.67l0.4-2.247h-2.71l-0.72,4.094h3.38l-0.23,1.281h-3.76l-0.34,1.974h0.5l-0.36,2.016-1,1.428h2.77l0.78-1.134,0.41-2.309h0.65l-0.6,3.443h3.52l1.2-6.782,0.53,1.386h5.38l0.97-.63-0.21,1.176h-6.59l-0.3,1.722h6.59l-0.25,1.386h-1.55l-0.48-.966h-3.95l1.16,2.268h3.27l0.15,0.441h4.73l0.55-3.128h0.78Zm-1.39,10.351-4.42-3.4h-3.55l0.84-.567h7.24l0.33-1.848h-1.72l-0.13-.966h-3.82l0.21,0.966h-1.78l0.26-1.491h-3.89l-0.26,1.491h-7.16l-0.32,1.848h5.18l-6.43,3.968h5.86l4.29-2.645,3.33,2.645h5.94Zm-2.81-16.293-1.1.756-0.12-.378h-0.91l0.43-.378h1.7Zm-2.77,1.995h-0.5l-0.32-.84h-2.22l0.29,0.84h-1.01l0.22-1.239h2.98Zm25.66,14.256,1.46-8.272h-5.92l6.91-6.152,0.48-2.73h-9.74l1.35-1.239h-5l-5.56,4.976h5.06l1.89-1.659h6.89l-4.67,4.2-1.75-1.974h-5.17l3.11,3.422h-6.23l0.46,2.037h1.15l-1.3,7.391h16.58Zm-3.64-2.079h-8.52l0.73-4.157h8.52Zm26.75-11.17,0.88-5h-8.14l-0.88,5h8.14Zm-8.16-5h-8.19l-0.89,5h8.19Zm6.69,16.314,0.35-1.974h-7.16l0.17-.966h6.19l1.35-7.622h-16.29l-1.35,7.622h6.17l-0.17.966h-7.1l-0.34,1.974h7.09l-0.34,1.932h3.93l0.34-1.932h7.16Zm-1.59-13.248h-1.3l0.21-1.2h1.3Zm-1.94,5.543h-2.27l0.17-.966h2.27Zm-7.13-5.543h-1.3l0.21-1.2h1.3Zm6.62,8.419h-2.27l0.18-.987h2.26Zm-5.69-2.876h-2.28l0.17-.966h2.28Zm-0.5,2.876h-2.29l0.17-.987h2.29Z" transform="translate(-1464.72 -41.438)"/>
</svg>
