<svg xmlns="http://www.w3.org/2000/svg" width="84.44" height="18.563" viewBox="0 0 84.44 18.563">
  <metadata><?xpacket begin="﻿" id="W5M0MpCehiHzreSzNTczkc9d"?>
<x:xmpmeta xmlns:x="adobe:ns:meta/" x:xmptk="Adobe XMP Core 5.6-c138 79.159824, 2016/09/14-01:09:01        ">
   <rdf:RDF xmlns:rdf="http://www.w3.org/1999/02/22-rdf-syntax-ns#">
      <rdf:Description rdf:about=""/>
   </rdf:RDF>
</x:xmpmeta>
                                                                                                    
                                                                                                    
                                                                                                    
                                                                                                    
                                                                                                    
                                                                                                    
                                                                                                    
                                                                                                    
                                                                                                    
                                                                                                    
                                                                                                    
                                                                                                    
                                                                                                    
                                                                                                    
                                                                                                    
                                                                                                    
                                                                                                    
                                                                                                    
                                                                                                    
                                                                                                    
                           
<?xpacket end="w"?></metadata>
<defs>
    <style>
      .cls-1 {
        fill: #7d0000;
        fill-rule: evenodd;
      }
    </style>
  </defs>
  <path id="登錄發票" class="cls-1" d="M1174.24,45.391h-2.83l-0.76.945-0.24-.525,2.73-3.212h-2.84l-0.93,1.113-0.55-1.134h-4.16l2.45,5.039h-5.25l2.37-2.6,0.4-2.246h-8.28l-0.34,1.974h4.13L1159,46l-0.28-.714h-3.42l1.24,3.443-2.45,2.708h1.34l-0.89,5.06h16.31l0.9-5.06h1.38l-1.46-3Zm-3.19,15.558,0.34-1.932h-3.27l1.18-1.953h-4.05l-1.16,1.953h-3.66l-0.51-1.953h-4.18l0.47,1.953h-3.04l-0.34,1.932h18.22Zm-2.35-10.078h-9.79l1.2-1.323h7.94Zm-1.41,3.674h-8.48l0.3-1.7h8.48Zm26.67-2.834h-2.82l-1.45,3.359h2.85Zm-1.37,8.818-0.12-4.892h-2.84l0.1,4.892h2.86Zm1.46-9.469,0.35-1.995h-1.47l1.43-4.136,0.3-1.7h-5.13l0.35-.777h-3.72l-1.72,3.947-0.32,1.827h5.64l-0.27.84h-6.03l-0.35,1.995h3.61l-1.39,7.916h-1.05l1.4-3.338h-2.85l-1.44,3.275,0.16-.924-1.89.231,0.99-5.564h1.95l0.35-1.995H1181l0.27-1.554h1.7l0.22-1.218h0.73l-0.35-5.249-5.83-.021-2.15,5.27h0.73l-0.21,1.218h1.61l-0.27,1.554h-1.99l-0.36,1.995h2l-1.07,6.047-2.17.273-0.35,1.995,7.38-.9-0.21.462h2.9l0.47-1.092,0.46,1.554h3.99l1.75-9.931h3.8Zm-8.25,4.01-0.2-3.359h-2.71l0.25,3.359h2.66Zm-3.19-1.617h-1.47l-1.15,3.989h1.49Zm-6.64,4.493,0.42-4.493h-1.49l-0.39,4.493h1.46Zm14.79-12.766-0.33,1.05h-2.18l0.46-1.05h2.05Zm-10.08,1.932h-1.51l1.02-2.478h0.4Zm34.33,4.64h-1.74l0.26-1.491h1.7l-1.42-2.541,2.37-2.792h-2.88l-0.66.777-0.26-.462,2.09-2.562h-2.58l-0.6.651-0.52-.861h-4.22l2.98,5.5h-3.45l-0.76,4.325-0.88,1.407h3.59l0.77-1.512,0.39-2.2h1.03l-0.65,3.716h4.22Zm-1.63,9.133-2.58-2.624,2.67-2.184,0.35-1.953h-9.09l-0.33,1.827h4.92l-0.58.5h-4.01l1.75,1.785-3.28,2.645h4.34l0.86-.693,0.67,0.693h4.31Zm-7.22-15.978,0.38-2.142h-8.12l-0.35,1.953H1202l-1.03.966-0.13-.378h-3.44l0.93,2.813-2.31,2.142h4.41l0.63-.588h0.65l-0.31,1.785h-4.39l-0.95,5.375h4.39l-0.37,2.1h-4.04l0.77,1.953h6.28l1.05-5.921h-4.39l0.28-1.617h4.37l0.95-5.375h-2.46Zm30.74-.294,0.34-1.974h-18.3l-0.35,1.974h5.06l-0.17.924h-4.59l-0.93,5.228h17.34l0.93-5.228h-4.56l0.17-.924h5.06Zm-2.58,16.125-1.52-4.01h-4.09l1.43,4.01h4.18Zm0.01-7.307,0.33-1.848h-16.3l-0.32,1.848h16.29Zm0.5,2.772,0.33-1.89h-18.24l-0.34,1.89h7.18l-0.49,2.771h-2.12l0.32,1.995h5.36l0.84-4.766h7.16Zm-12.29.525h-4.14l-2.87,4.01h4.11Zm9.69-7.832h-1.15l0.26-1.47h1.15Zm-4.11-3.359h-1.13l0.16-.924h1.14Zm-0.59,3.359h-1.13l0.26-1.47h1.13Zm-4.64,0h-1.11l0.26-1.47h1.11Z" transform="translate(-1152.81 -42.438)"/>
</svg>
