<?xml version="1.0" encoding="utf-8"?>
<!-- Generator: Adobe Illustrator 22.0.0, SVG Export Plug-In . SVG Version: 6.00 Build 0)  -->
<svg version="1.1" id="圖層_1" xmlns="http://www.w3.org/2000/svg" xmlns:xlink="http://www.w3.org/1999/xlink" x="0px" y="0px"
	 viewBox="0 0 378.9 381" style="enable-background:new 0 0 378.9 381;" xml:space="preserve">
<style type="text/css">
	.st0{fill:#FFFFFF;}
</style>
<g>
	<path class="st0" d="M254.7,121l-82.6,84.1l-42.3-42.5L107,185.3l66.7,66.6L281,148L254.7,121z M254.7,121"/>
	<path class="st0" d="M190.7,13C96.4,13,20,89.4,20,183.6c0,94.3,76.4,170.7,170.7,170.7c94.3,0,170.7-76.4,170.7-170.7
		C361.3,89.4,284.9,13,190.7,13L190.7,13z M190.7,323.4c-77.2,0-139.8-62.6-139.8-139.8c0-77.2,62.6-139.8,139.8-139.8
		c77.2,0.1,139.7,62.6,139.8,139.8C330.4,260.8,267.9,323.4,190.7,323.4L190.7,323.4z M190.7,323.4"/>
</g>
</svg>
