<?xml version="1.0" encoding="utf-8"?>
<!-- Generator: Adobe Illustrator 22.0.0, SVG Export Plug-In . SVG Version: 6.00 Build 0)  -->
<svg version="1.1" id="圖層_1" xmlns="http://www.w3.org/2000/svg" xmlns:xlink="http://www.w3.org/1999/xlink" x="0px" y="0px"
	 viewBox="0 0 433.9 319.4" style="enable-background:new 0 0 433.9 319.4;" xml:space="preserve">
<style type="text/css">
	.st0{fill:#F41414;}
</style>
<path class="st0" d="M157.9,313.3c-9.2,0-18.1-3.6-24.8-10.1L16.3,189.4C2.2,175.7,2,153.1,15.7,139.1c13.7-14.1,36.2-14.4,50.3-0.6
	l85.4,83.2C185.6,172.9,256.9,87.3,378.2,9.6c16.6-10.6,38.6-5.8,49.2,10.8c10.6,16.6,5.8,38.6-10.8,49.2
	C253.6,173.9,190.1,293,189.5,294.2c-5.2,10-14.8,16.9-25.9,18.7C161.7,313.2,159.8,313.3,157.9,313.3z"/>
</svg>
