<?xml version="1.0" encoding="utf-8"?>
<!-- Generator: Adobe Illustrator 16.0.0, SVG Export Plug-In . SVG Version: 6.00 Build 0)  -->
<!DOCTYPE svg PUBLIC "-//W3C//DTD SVG 1.1//EN" "http://www.w3.org/Graphics/SVG/1.1/DTD/svg11.dtd">
<svg version="1.1" id="Layer_1" xmlns="http://www.w3.org/2000/svg" xmlns:xlink="http://www.w3.org/1999/xlink" x="0px" y="0px"
	 width="375.417px" height="125.694px" viewBox="0 0 375.417 125.694" style="enable-background:new 0 0 375.417 125.694;"
	 xml:space="preserve">
<style type="text/css">
<![CDATA[
	.st0{fill:#E3041D;}
	.st1{fill:#043079;}
]]>
</style>
<g>
	<path class="st1" d="M0,52.034c0.028-0.453,0.058-0.819,0.086-1.101c0.028-0.281,0.043-0.491,0.043-0.632l-0.043-0.59L0,48.569
		c1.386,0.145,2.772,0.217,4.159,0.217h4.245l-0.347-1.17c-0.116-0.317-0.39-0.917-0.823-1.797
		c-0.433-0.881-0.708-1.451-0.823-1.711l-0.606-0.996c1.241-0.317,2.426-0.751,3.552-1.3l3.119,5.935
		c-0.896,0.26-1.733,0.606-2.512,1.04h2.729c1.386,0,2.844-0.072,4.375-0.217c-0.086,0.51-0.137,0.828-0.151,0.954
		c-0.015,0.126-0.008,0.373,0.021,0.737v0.673l0.13,1.101c-1.531-0.144-2.975-0.216-4.332-0.216H4.159
		C2.83,51.818,1.444,51.89,0,52.034z M1.516,54.503c1.328,0.145,2.613,0.217,3.855,0.217h5.891c0.664,0,2.079-0.072,4.245-0.217
		c-0.058,0.462-0.102,0.838-0.13,1.126c-0.029,0.289-0.029,0.491,0,0.606l0.043,0.563l0.086,1.169
		c-1.444-0.144-2.859-0.216-4.245-0.216H5.372c-1.213,0-2.499,0.072-3.855,0.216c0.086-0.433,0.144-0.779,0.173-1.04
		c0.028-0.26,0.036-0.512,0.021-0.758C1.696,55.926,1.631,55.37,1.516,54.503z M1.56,64.077c0.057-0.425,0.101-0.771,0.13-1.038
		c0.028-0.267,0.036-0.449,0.021-0.547c-0.015-0.098-0.065-0.739-0.151-1.924c1.906,0.173,3.249,0.26,4.028,0.26h5.675
		c0.837,0,2.296-0.087,4.375-0.26c-0.086,0.482-0.137,0.787-0.151,0.913c-0.015,0.126-0.007,0.387,0.021,0.78v0.631l0.13,1.185
		c-1.618-0.144-3.104-0.216-4.461-0.216H5.588C4.259,63.86,2.917,63.933,1.56,64.077z M2.166,83.224
		c0.086-0.953,0.144-1.697,0.173-2.231s0.043-1.335,0.043-2.4v-7.984c0-0.683-0.015-1.194-0.043-1.536l-0.173-2.31
		c1.468,0.146,2.763,0.217,3.886,0.217h5.007c1.179,0,2.431-0.073,3.756-0.222c-0.116,1.044-0.181,1.832-0.195,2.366
		c-0.015,0.534-0.022,1.076-0.022,1.624v3.942c0,0.751,0.014,1.213,0.043,1.386l0.13,1.17l0.606-1.17
		c0.491-0.924,0.888-2.093,1.191-3.509c0.303-1.414,0.505-2.54,0.606-3.379c0.101-0.837,0.188-2.015,0.26-3.532
		c0.072-1.517,0.123-2.957,0.152-4.32v-4.133c0-1.6,0-2.622,0-3.066l-0.217-4.527c1.444,0.145,2.816,0.217,4.115,0.217h7.538
		c-0.173-2.483-0.26-4.216-0.26-5.198l-0.043-2.556c0.577,0.116,1.934,0.26,4.072,0.433l-0.173,1.689
		c-0.173,1.502-0.231,2.599-0.173,3.292l0.087,2.339h3.509l-0.433-1.17c-0.059-0.115-0.289-0.52-0.693-1.213
		c-0.405-0.693-0.606-1.068-0.606-1.126l-0.736-1.04c1.068-0.404,2.064-0.924,2.989-1.56l3.119,5.025
		c-0.866,0.318-1.661,0.679-2.382,1.083h1.04c1.04,0,2.18-0.072,3.422-0.217c-0.058,0.55-0.094,0.902-0.108,1.057
		c-0.015,0.156-0.008,0.499,0.021,1.027v0.561l0.086,1.384c-1.357-0.144-2.628-0.217-3.812-0.217h-5.328
		c-0.029,1.589-0.037,2.917-0.021,3.985c0.014,1.069,0.036,2.13,0.065,3.184c0.028,1.054,0.115,2.173,0.26,3.357l0.303,3.032
		c0.606-1.877,1.032-3.284,1.278-4.223c0.245-0.938,0.44-1.754,0.585-2.448l0.39-2.209l0.26-1.43
		c1.674,0.693,3.017,1.126,4.028,1.299l-0.606,1.603c-0.202,0.549-0.693,1.971-1.473,4.267c-0.78,2.295-1.386,3.92-1.819,4.873
		l-1.256,2.815c0.433,1.386,1.003,2.736,1.711,4.05c0.708,1.314,1.17,1.964,1.386,1.949c0.217-0.015,0.39-0.289,0.52-0.822
		c0.13-0.535,0.223-1.134,0.282-1.798l0.13-1.993c0.895,1.155,1.544,1.819,1.949,1.993l1.083,0.606
		c-0.26,0.895-0.52,1.912-0.78,3.054c-0.26,1.141-0.549,2.072-0.866,2.794c-0.318,0.722-0.932,1.075-1.841,1.062
		c-0.91-0.015-1.813-0.672-2.708-1.971c-0.895-1.3-1.935-3.019-3.119-5.155c-1.473,1.732-2.455,2.844-2.946,3.336
		c-0.491,0.49-1.12,1.067-1.884,1.732c-0.766,0.664-1.336,1.17-1.711,1.516l-1.213,1.127c-0.434-0.376-0.823-0.687-1.17-0.932
		c-0.346-0.246-1.299-0.744-2.859-1.494l1.906-0.997c1.328-0.692,2.765-1.704,4.31-3.032c1.544-1.327,2.938-2.96,4.18-4.895
		c-0.289-1.184-0.52-2.209-0.693-3.076c-0.173-0.866-0.339-2.058-0.498-3.573c-0.159-1.516-0.267-2.995-0.325-4.44l-0.173-4.072
		L29.11,53.42h-8.187v5.415h3.206c1.473,0,2.671-0.072,3.595-0.217l-0.26,10.526l-0.13,2.123c-0.058,0.896-0.173,1.523-0.347,1.884
		c-0.173,0.361-0.513,0.736-1.018,1.127c-0.505,0.39-2.043,0.801-4.613,1.234c-0.087-0.491-0.188-0.924-0.303-1.3
		c-0.116-0.375-0.419-0.938-0.91-1.689c-0.578,1.878-1.155,3.458-1.733,4.743c-0.578,1.285-1.357,2.692-2.339,4.224l-1.04,1.603
		c-0.404-0.26-0.721-0.447-0.951-0.563c-0.23-0.116-1.279-0.463-3.146-1.04c0.891-0.809,1.709-1.646,2.457-2.513
		c-1.15-0.115-2.099-0.173-2.846-0.173H5.805v1.517c0,0.837,0.014,1.371,0.043,1.603l0.13,1.3C4.909,83.05,3.639,83.05,2.166,83.224
		z M5.805,75.772h5.372v-5.762H5.805V75.772z M23.002,71.57c0.462,0,0.765-0.115,0.91-0.347c0.144-0.23,0.231-0.577,0.26-1.039
		l0.26-8.317h-3.466c-0.029,1.733-0.058,3.162-0.086,4.288c-0.029,1.127-0.072,2.008-0.13,2.643l-0.26,2.513
		C21.327,71.513,22.164,71.6,23.002,71.57z"/>
	<path class="st1" d="M59.04,77.202c0.057-0.48,0.093-0.812,0.108-0.993c0.014-0.182,0.022-0.385,0.022-0.608
		c-0.029-0.252-0.073-0.758-0.13-1.518c1.906,0.145,3.653,0.217,5.241,0.217h13.472v-1.776h-10.05l-2.252,0.087l-2.296,0.086
		c0.028-0.49,0.05-0.858,0.065-1.104c0.014-0.245,0.028-0.418,0.043-0.52c0.014-0.101-0.021-0.585-0.108-1.451
		c2.339,0.145,3.84,0.217,4.505,0.217h10.093l0.041-1.732c-2.453,0.086-5.947,0.158-10.48,0.216l-3.119,0.044
		c-0.289-0.693-0.462-1.098-0.52-1.213l-1.213-1.819l2.036,0.173c2.021,0.173,5.956,0.202,11.804,0.087s10.302-0.534,13.364-1.256
		l2.036-0.477c0.779,1.184,1.603,2.368,2.469,3.552l-2.859-0.13c-1.04-0.028-4.418,0.145-10.136,0.52v2.036h9.833
		c1.848,0,3.581-0.087,5.198-0.26c-0.086,0.375-0.145,0.679-0.173,0.909c-0.029,0.231-0.037,0.39-0.021,0.477
		c0.014,0.087,0.079,0.665,0.195,1.732c-1.964-0.114-3.625-0.173-4.981-0.173h-10.05V74.3h12.865c1.993,0,3.87-0.072,5.631-0.217
		c-0.058,0.341-0.094,0.615-0.108,0.825c-0.015,0.21-0.029,0.434-0.043,0.671c-0.015,0.238-0.007,0.357,0.021,0.357l0.13,1.266
		c-2.628-0.146-4.491-0.217-5.588-0.217H81.176l-0.041,2.079c-0.027,1.126-0.095,1.869-0.204,2.231
		c-0.109,0.36-0.387,0.736-0.835,1.126c-0.448,0.39-2.183,0.83-5.202,1.321c-0.087-0.463-0.188-0.889-0.303-1.278
		c-0.116-0.39-0.563-1.321-1.343-2.794c2.513,0.462,3.892,0.563,4.137,0.304c0.245-0.26,0.368-0.693,0.368-1.3v-1.689H64.368
		C63.646,76.985,61.87,77.057,59.04,77.202z M61.942,59.42c0.578,0.043,0.997,0.065,1.256,0.065h5.285v-1.646h-3.985
		c-1.04,0-2.195,0.073-3.466,0.217c0.058-0.381,0.101-0.677,0.13-0.887c0.028-0.21,0.036-0.387,0.021-0.532
		c-0.015-0.145-0.065-0.552-0.152-1.223c1.271,0.145,2.397,0.217,3.379,0.217h1.386c-0.433-0.96-0.881-1.922-1.343-2.883
		l-1.213-0.043c-0.751,0-1.964,0.073-3.639,0.218c0.058-0.408,0.101-0.72,0.13-0.939c0.028-0.218,0.036-0.408,0.021-0.568
		c-0.015-0.16-0.065-0.589-0.151-1.287c1.646,0.116,3.032,0.173,4.159,0.173h4.808v-2.08h-3.119c-1.185,0-2.426,0.073-3.726,0.217
		c0.058-0.448,0.101-0.793,0.13-1.036c0.028-0.243,0.036-0.448,0.021-0.614s-0.065-0.656-0.151-1.469
		c1.79,0.145,3.018,0.217,3.682,0.217h3.162v-0.953l-0.086-1.04l-0.13-1.603c1.04,0.145,1.667,0.21,1.884,0.195
		c0.216-0.014,0.873-0.08,1.971-0.195c-0.116,0.722-0.181,1.207-0.195,1.451c-0.015,0.246-0.021,0.614-0.021,1.105l-0.043,1.085
		l3.206-0.045c0.548,0,1.906-0.072,4.072-0.217c-0.058,0.418-0.094,0.741-0.108,0.968c-0.015,0.227-0.029,0.455-0.043,0.683
		c-0.015,0.228-0.007,0.357,0.021,0.387l0.13,1.082c-1.415-0.144-2.729-0.217-3.942-0.217h-3.292v2.08h4.375
		c0.953,0,2.151-0.058,3.595-0.173c-0.058,0.33-0.101,0.589-0.13,0.776s-0.029,0.334,0,0.441l0.043,0.401l0.086,0.98
		c-1.098-0.144-1.992-0.217-2.686-0.217h-1.083c-0.635,1.086-1.228,2.126-1.776,3.119h1.256c0.895,0,1.949-0.072,3.162-0.217
		c-0.087,0.355-0.145,0.631-0.173,0.829c-0.029,0.198-0.037,0.335-0.021,0.414c0.014,0.079,0.079,0.546,0.195,1.4
		c-1.213-0.144-2.441-0.217-3.682-0.217h-3.249v1.646h3.379c0.404,0,1.704-0.072,3.899-0.217c-0.087,0.428-0.145,0.767-0.173,1.018
		c-0.029,0.251-0.037,0.463-0.022,0.635c0.014,0.173,0.08,0.662,0.195,1.466c-1.386-0.145-2.729-0.217-4.029-0.217h-3.249v0.693
		c0,0.173,0.028,0.549,0.087,1.126l0.13,1.299c-0.993-0.115-1.679-0.18-2.06-0.194s-0.979,0.051-1.796,0.194
		c0.028-0.548,0.072-1.024,0.13-1.429c0.058-0.404,0.087-0.722,0.087-0.953v-0.736h-5.285c-1.04,0-2.195,0.072-3.465,0.217
		c0.058-0.458,0.101-0.813,0.13-1.065v-0.565c0-0.345,0-0.534,0-0.566l-0.13-0.923C60.628,59.327,61.364,59.377,61.942,59.42z
		 M67.443,52.511c0.462,1.086,0.895,2.126,1.3,3.119h2.729c0.375-0.993,0.736-2.033,1.083-3.119H67.443z M81.392,60.568
		c0.953-0.953,1.501-1.573,1.646-1.862l0.867-1.603c-1.185-0.664-2.094-1.169-2.729-1.516l-1.17-0.606
		c0.635-0.693,1.241-1.386,1.819-2.079l2.946,1.603c0.086-0.78,0.144-1.241,0.173-1.386l0.13-1.732h-1.733l-1.949,0.13l-1.169,0.043
		l-0.217-2.902c0.953,0.059,1.935,0.073,2.946,0.043l2.209-0.043c0-0.664,0.007-1.234,0.022-1.711
		c0.014-0.477-0.007-1.176-0.065-2.101l-0.173-2.642c1.328,0.26,2.627,0.477,3.898,0.649l-0.216,1.517l-0.13,2.079l-0.173,2.079
		l2.512-0.13l2.209-0.173l1.646-0.13c-0.202,1.646-0.325,2.853-0.368,3.617c-0.043,0.766-0.051,1.596-0.021,2.491
		c0,1.531,0.065,2.766,0.195,3.704c0.13,0.939,0.353,1.661,0.671,2.166c0.317,0.506,0.577,0.744,0.78,0.715
		c0.347,0,0.642-0.418,0.888-1.256c0.245-0.837,0.383-1.357,0.412-1.56l0.173-1.299c1.011,1.213,2.036,2.138,3.076,2.772
		c-0.665,1.732-1.394,3.177-2.188,4.332c-0.795,1.155-1.762,1.394-2.902,0.715c-1.141-0.678-2.008-1.408-2.599-2.188
		c-0.592-0.78-0.946-1.53-1.062-2.252l-0.346-1.56c-0.78,0.838-1.502,1.689-2.166,2.556l-0.997-0.996
		c-0.058-0.028-0.621-0.477-1.689-1.343c-0.982,1.618-1.819,2.831-2.512,3.639l-1.733,1.819l-1.04,1.083
		c-0.751-0.664-1.199-1.039-1.343-1.126l-1.906-0.953C79.313,62.388,80.439,61.521,81.392,60.568z M87.717,56.106l3.595,2.209
		c-0.058-0.953-0.086-1.674-0.086-2.166l-0.043-2.989l-0.043-2.079l-2.989,0.13C88.005,52.771,87.861,54.403,87.717,56.106z"/>
	<path class="st1" d="M117.516,79.151l2.036-0.823c3.609-1.444,6.671-3.682,9.183-6.714l-3.075-2.036l-2.08-1.213l-1.863-1.083
		c0.981-3.206,1.516-4.981,1.603-5.328l1.473-7.407h-1.169c-1.646,0-3.351,0.072-5.112,0.216c0.058-0.513,0.094-0.846,0.108-1
		c0.014-0.154,0.022-0.461,0.022-0.922v-0.784l-0.13-1.322c1.848,0.145,3.624,0.216,5.328,0.216h1.43
		c0.144-0.837,0.26-1.544,0.347-2.123c0.086-0.577,0.188-1.371,0.303-2.382l0.216-2.426l0.26-2.686
		c2.194,0.665,3.595,1.04,4.202,1.126l-0.433,1.863c-0.058,0.202-0.231,1.141-0.52,2.815l-0.346,1.906l-0.26,1.906h4.246
		c1.443,0,3.017-0.072,4.722-0.216c-0.203,1.865-0.419,3.617-0.65,5.254c-0.231,1.638-0.556,3.532-0.975,5.684
		c-0.419,2.151-0.766,3.769-1.04,4.851c-0.275,1.083-0.802,2.55-1.581,4.397l5.935,4.722c-0.953,0.895-1.979,2.021-3.076,3.379
		l-1.17-1.43c-0.809-0.953-2.079-2.166-3.812-3.639c-1.675,2.021-3.711,3.913-6.108,5.675l-2.902,1.992l-1.256,0.953
		C120.418,81.447,119.133,80.306,117.516,79.151z M125.963,65.939l4.505,2.858c0.895-2.339,1.487-4.05,1.776-5.132
		c0.289-1.083,0.534-2.325,0.737-3.726c0.202-1.4,0.332-2.346,0.39-2.837l0.217-2.556h-5.198L125.963,65.939z M145.322,47.399h6.9
		c1.426,0,2.983-0.072,4.67-0.217c-0.086,1.833-0.159,3.483-0.217,4.953c-0.058,1.47-0.086,2.685-0.086,3.645v14.36
		c0,1.076,0.043,2.75,0.13,5.02l0.173,4.468c-1.308-0.087-2.067-0.138-2.276-0.151c-0.209-0.016-0.88,0.035-2.012,0.151
		c0-0.578,0.021-1.134,0.065-1.668c0.043-0.535,0.065-0.83,0.065-0.888v-1.17h-8.404v1.386l0.043,1.474l0.043,1.343
		c-1.253-0.087-2.007-0.138-2.261-0.152c-0.254-0.015-0.902,0.036-1.941,0.152c0.058-1.791,0.115-3.324,0.173-4.601
		c0.058-1.276,0.087-2.671,0.087-4.185V55.955c0-1.891-0.029-3.463-0.087-4.714l-0.173-4.058
		C142.018,47.328,143.721,47.399,145.322,47.399z M144.33,72.307h8.404V50.995h-8.404V72.307z"/>
	<path class="st1" d="M178.246,63.904c0.115-1.184,0.173-1.964,0.173-2.339c-0.029-0.173-0.086-0.981-0.173-2.426
		c2.83,0.202,5.227,0.303,7.19,0.303h24.259c2.079,0,4.636-0.101,7.668-0.303c-0.059,0.693-0.108,1.22-0.152,1.581
		c-0.043,0.361-0.058,0.621-0.043,0.78c0.015,0.159,0.036,0.412,0.065,0.758l0.13,1.646c-3.697-0.231-6.253-0.347-7.668-0.347
		h-24.259C184.165,63.557,181.769,63.673,178.246,63.904z"/>
</g>
<g>
	<g>
		<path class="st0" d="M312.57,0c-34.657,0-62.848,28.192-62.848,62.844c0,34.657,28.19,62.85,62.848,62.85
			c34.654,0,62.848-28.193,62.848-62.85C375.417,28.192,347.224,0,312.57,0 M312.57,120.952c-32.037,0-58.108-26.066-58.108-58.108
			c0-32.037,26.071-58.103,58.108-58.103c32.041,0,58.112,26.066,58.112,58.103C370.682,94.886,344.611,120.952,312.57,120.952"/>
		<path class="st0" d="M290.507,73.544h17.871c0.563,0,1.23-0.358,1.23-2.065v-0.374c0-1.704-0.661-2.062-1.241-2.062
			c-0.035,0-0.074,0-0.06,0.007l-17.769-0.018l-0.079,0.011c-0.551,0.018-1.179,0.394-1.179,2.062v0.374
			C289.282,73.186,289.946,73.544,290.507,73.544"/>
		<path class="st0" d="M309.637,79.935h-19.176c-0.548,0.018-1.181,0.395-1.181,2.063v0.371c0,1.708,0.665,2.065,1.237,2.065
			l10.615,0.002v13.199c0.012,0.039,0.018,0.215-0.057,0.309c-0.034,0.04-0.093,0.064-0.181,0.075l-8.914,0.004
			c-0.586,0-1.286,0.378-1.286,2.175v0.396c0,1.79,0.7,2.164,1.286,2.164h9.739c0.031,0,3.135-0.046,3.451-4.131V84.437h4.447
			l0.109-0.007l0.007-0.006c0.32-0.027,0.723-0.194,0.946-0.801c0.122-0.322,0.179-0.748,0.179-1.254v-0.371
			C310.861,80.29,310.196,79.935,309.637,79.935 M291.982,102.519L291.982,102.519v0.004V102.519z"/>
		<path class="st0" d="M270.857,73.544H282.2c0.036-0.006,3.533-0.304,4.078-5.261v-2.788v-0.229
			c-0.005-0.071-0.005-0.146-0.005-0.216c0.005-0.278-0.103-0.541-0.316-0.753c-0.362-0.37-0.963-0.54-1.393-0.54h-0.299
			c-0.431,0-1.031,0.165-1.394,0.54c-0.213,0.212-0.324,0.471-0.316,0.751v2.824c0,0,0.024,0.574-0.288,0.907
			c-0.164,0.17-0.379,0.252-0.683,0.252l-10.728,0.005c-0.563,0-1.23,0.359-1.23,2.067v0.45c0,0.055,0,0.115,0.003,0.153
			l0.008,0.127C269.73,73.245,270.352,73.544,270.857,73.544"/>
		<path class="st0" d="M287.898,74.966c0.007-0.286-0.104-0.544-0.31-0.755c-0.362-0.367-0.963-0.533-1.396-0.533h-0.299
			c-0.434,0-1.032,0.166-1.4,0.533c-0.206,0.211-0.32,0.469-0.313,0.749v3.807c0,0,0.024,0.576-0.295,0.905
			c-0.157,0.169-0.374,0.248-0.672,0.248h-12.048l-0.063,0.008c-0.075,0.003-0.146,0.003-0.245,0.003
			c-0.563,0-1.23,0.359-1.23,2.068v0.442c0,0.063,0,0.121,0.003,0.158l0.008,0.131c0.092,1.409,0.715,1.706,1.229,1.706h5.922
			v16.732l0.004,0.485c-0.004,0.262,0.082,0.488,0.264,0.664c0.288,0.295,0.806,0.441,1.55,0.441h0.326
			c0.74,0,1.263-0.146,1.55-0.441c0.179-0.176,0.265-0.402,0.257-0.662v-17.22h3.089c0.032-0.001,3.53-0.3,4.077-5.254v-3.741
			v-0.268L287.898,74.966z"/>
		<path class="st0" d="M352.545,55.543l-0.195-0.012c-2.667-0.141-11.589-1.452-14.451-12.466c-0.106-0.353-0.643-2.333-0.643-6.207
			v-0.058h16.096c0.541,0,1.181-0.343,1.181-1.971v-0.354c0-1.642-0.637-1.982-1.191-1.982c-0.186-0.005-0.354-0.008-0.537-0.008
			h-15.548v-7.198l-0.011-0.867c0.003-0.276-0.089-0.502-0.27-0.692c-0.307-0.303-0.854-0.46-1.636-0.46h-0.16h-0.161
			c-0.781,0-1.329,0.157-1.634,0.46c-0.183,0.189-0.274,0.416-0.268,0.692l-0.014,0.867l-0.003,7.198h-15.546
			c-0.181,0-0.353,0.003-0.537,0.008c-0.555,0-1.19,0.341-1.19,1.982v0.354c0,1.628,0.64,1.971,1.176,1.971h16.098v0.058
			c0,3.873-0.534,5.854-0.642,6.207c-2.86,11.014-11.783,12.325-14.45,12.466l-0.195,0.012c-1.142,0.11-1.998,1.063-1.998,2.208
			c0,1.222,0.992,2.212,2.215,2.212l0.054-0.003c0.11,0.003,0.241,0.003,0.366,0c12.157-0.719,15.854-10.532,16.729-13.695
			c0.877,3.163,4.57,12.976,16.729,13.695c0.125,0.003,0.254,0.003,0.366,0l0.053,0.003c1.221,0,2.212-0.991,2.212-2.212
			C354.54,56.606,353.683,55.654,352.545,55.543"/>
		<path class="st0" d="M354.902,77.084c0.311,0,0.722-0.124,0.946-0.729c0.109-0.286,0.16-0.662,0.16-1.115v-0.326
			c0-1.517-0.602-1.838-1.116-1.838c-0.167,0-0.321-0.006-0.491-0.006h-7.479v-2.841h6.424c0.409,0,1.103-0.238,1.103-1.838v-0.329
			c0-1.521-0.601-1.835-1.117-1.835l-6.409-0.008l-0.003-1.496c0.003-0.226-0.08-0.429-0.232-0.582
			c-0.252-0.257-0.688-0.383-1.333-0.383h-0.27c-0.645,0-1.08,0.126-1.336,0.383c-0.149,0.153-0.228,0.356-0.225,0.582v1.496h-5.919
			l-0.501,0.008c-0.505,0-1.109,0.314-1.109,1.835v0.329c0,1.6,0.694,1.838,1.117,1.838h6.412v2.841h-8.343h-8.34v-2.841h6.408
			c0.425,0,1.117-0.238,1.117-1.838v-0.329c0-1.521-0.604-1.835-1.109-1.835l-0.501-0.008h-5.915v-1.496
			c0-0.226-0.078-0.429-0.231-0.582c-0.252-0.257-0.689-0.383-1.33-0.383h-0.272c-0.645,0-1.081,0.126-1.338,0.383
			c-0.148,0.153-0.23,0.356-0.227,0.582l-0.004,1.496l-6.41,0.008c-0.515,0-1.115,0.314-1.115,1.835v0.329
			c0,1.6,0.693,1.838,1.102,1.838h6.424v2.841h-7.479c-0.171,0-0.323,0.006-0.495,0.006c-0.512,0-1.115,0.321-1.115,1.838v0.326
			c0,0.453,0.054,0.829,0.16,1.115c0.228,0.604,0.637,0.729,0.945,0.729h6.406v2.836h-4.34c-0.172,0-0.324,0.008-0.492,0.01
			c-0.515,0-1.115,0.32-1.115,1.836v0.33c0,1.518,0.598,1.835,1.098,1.835h4.85v2.846h-5.901c-0.171,0-0.323,0.008-0.495,0.008
			c-0.515,0-1.115,0.317-1.115,1.838v0.322c0,1.518,0.598,1.834,1.099,1.834H333.1v2.389h-15.58c-0.172,0-0.324,0.008-0.492,0.008
			c-0.518,0-1.115,0.316-1.115,1.839v0.329c0,1.599,0.693,1.839,1.102,1.839H333.1v3.912c0,0.088,0.004,0.176,0.007,0.262
			c0,0.087,0.004,0.165,0.004,0.254c-0.004,0.27,0.086,0.5,0.271,0.689c0.298,0.308,0.85,0.461,1.635,0.461h0.164h0.164
			c0.781,0,1.336-0.153,1.634-0.461c0.182-0.189,0.274-0.42,0.271-0.689c0-0.089,0-0.167,0.004-0.254
			c0.004-0.086,0.004-0.174,0.004-0.262v-3.912h16.089c0.409,0,1.103-0.24,1.103-1.839v-0.329c0-1.522-0.598-1.839-1.117-1.839
			c-0.166,0-0.319-0.008-0.493-0.008h-15.581v-2.389h17.652c0.505,0,1.1-0.316,1.1-1.834v-0.322c0-1.521-0.598-1.838-1.116-1.838
			c-0.167,0-0.321-0.008-0.491-0.008h-5.903v-2.846h4.848c0.505,0,1.103-0.317,1.103-1.835v-0.33c0-1.516-0.601-1.836-1.117-1.836
			c-0.166-0.002-0.319-0.01-0.493-0.01h-4.34v-2.836H354.902z M333.1,86.776h-7.689v-2.846h7.689V86.776z M333.1,79.92h-7.689
			v-2.836h7.689V79.92z M344.949,86.776h-7.692v-2.846h7.692V86.776z M344.949,79.92h-7.692v-2.836h7.692V79.92z"/>
		<path class="st0" d="M307.312,25.124h-15.375c-0.026,0.003-2.457,0.315-2.656,3.286v26.897v0.548
			c0.288,3.73,3.122,3.774,3.149,3.774h0.503h1.775h3.557c0.537,0,1.18-0.344,1.18-1.976v-0.363c0-1.635-0.643-1.975-1.19-1.975
			c-0.185,0-0.349-0.008-0.537-0.008h-3.009h-1.39V41.384h13.763c0,0,2.11-0.13,2.526-2.869V28.308
			C309.623,27.275,309.167,25.285,307.312,25.124 M306.167,37.377H293.32v-8.813h12.848V37.377z"/>
		<path class="st0" d="M309.886,55.634c-0.068-0.015-0.14-0.035-0.228-0.035c-2.166-0.005-3.975-0.589-5.372-1.729
			c1.426-2.476,3.043-5.275,4.423-7.669l0.074-0.115c0.054-0.092,0.412-0.722,0.476-0.833l0.211-0.37
			c0.138-0.236,0.174-0.503,0.104-0.784c-0.126-0.478-0.545-0.906-0.9-1.11c-0.081-0.053-0.171-0.106-0.252-0.146
			c-0.291-0.171-0.683-0.274-1.024-0.274c-0.461,0-0.821,0.187-1.03,0.559c-0.058,0.097-0.106,0.186-0.171,0.304l-0.035,0.055
			c-0.004,0.014-0.019,0.034-0.033,0.051l-0.166,0.292c-0.082,0.145-0.163,0.29-0.195,0.335c-1.259,2.182-2.521,4.368-3.779,6.553
			c-0.735-1.674-1.002-3.468-1.087-4.703l-0.005-2.604c0.007-0.261-0.096-0.503-0.291-0.702c-0.334-0.338-0.892-0.494-1.29-0.494
			h-0.274c-0.397,0-0.945,0.152-1.282,0.494c-0.2,0.199-0.303,0.441-0.296,0.702v0.774c-0.057,1.376-0.138,8.432,3.796,12.542
			c1.91,1.986,4.48,2.991,7.637,2.991c0.199,0,0.397-0.001,0.593-0.007h0.094c1.138,0,2.061-0.924,2.061-2.054
			C311.641,56.648,310.881,55.776,309.886,55.634"/>
		<path class="st0" d="M286.811,48.941l-0.477-0.002l-4.024,0.002c-0.494,0-1.082,0.317-1.082,1.806v0.32
			c0,1.482,0.588,1.793,1.094,1.793h4.499c0.302,0,0.708-0.12,0.928-0.708c0.104-0.281,0.157-0.646,0.157-1.084v-0.32
			C287.906,49.177,287.226,48.941,286.811,48.941"/>
		<path class="st0" d="M286.811,35.688c-0.164,0-0.317-0.007-0.477-0.007h-15.13c-0.163,0-0.303,0.007-0.487,0.007h-0.01
			c-0.406,0-1.081,0.236-1.081,1.802v0.322c0,1.558,0.675,1.791,1.094,1.791h6.261v2.973h-5.776c-0.163,0-0.303,0.01-0.487,0.01
			h-0.01c-0.406,0-1.081,0.228-1.081,1.793v0.319c0,1.567,0.683,1.798,1.094,1.798h6.261v8.811h-5.627
			c-0.178-0.004-0.335,0.004-0.54,0.006h-0.004c-0.541,0-1.184,0.341-1.184,1.976v0.363c0,1.632,0.643,1.975,1.193,1.975h15.908
			c0.328,0,0.769-0.135,1.007-0.78c0.118-0.304,0.171-0.708,0.171-1.195v-0.363c0-1.635-0.641-1.976-1.191-1.976
			c-0.181,0-0.359-0.006-0.54-0.006h-5.62v-8.811h6.267c0.405,0,1.085-0.231,1.085-1.798v-0.319c0-1.566-0.68-1.793-1.095-1.793
			c-0.164,0-0.317-0.01-0.477-0.01h-5.78v-2.973h6.27c0.406,0,1.082-0.233,1.082-1.791V37.49
			C287.906,35.924,287.226,35.688,286.811,35.688"/>
		<path class="st0" d="M275.218,52.859c0.497,0,1.083-0.311,1.083-1.793v-0.32c0-1.487-0.586-1.806-1.094-1.806l-0.477-0.002
			l-4.024,0.002c-0.49,0-1.081,0.319-1.081,1.806v0.32c0,1.482,0.591,1.793,1.093,1.793H275.218z"/>
		<path class="st0" d="M285.897,30.339c-3.107,0-4.348-3.067-4.877-4.374c-0.062-0.143-0.11-0.27-0.149-0.362
			c-0.612-1.336-1.057-1.825-1.063-1.835c-0.253-0.317-0.633-0.496-1.037-0.496c-0.406,0-0.786,0.179-1.024,0.482
			c-0.021,0.024-0.466,0.513-1.07,1.849c-0.042,0.092-0.096,0.222-0.157,0.371c-0.529,1.306-1.776,4.364-4.877,4.364
			c-1.165,0-2.11,0.95-2.11,2.114c0,1.162,0.945,2.107,2.11,2.107c2.892,0,6.051-2.422,7.129-4.647
			c1.076,2.226,4.24,4.647,7.127,4.647c1.162,0,2.107-0.945,2.107-2.107C288.004,31.289,287.059,30.339,285.897,30.339"/>
		<path class="st0" d="M303.348,31.022c-0.16,0-0.313-0.007-0.476-0.007h-6.24c-0.084,0-0.166,0.001-0.246,0.001
			c-0.077,0-0.177-0.005-0.245,0.006c-0.489,0-1.083,0.312-1.083,1.798v0.321c0,1.483,0.594,1.794,1.096,1.794h7.205
			c0.405,0,1.088-0.23,1.088-1.794v-0.321C304.447,31.255,303.764,31.022,303.348,31.022"/>
	</g>
</g>
</svg>
