<?xml version="1.0" encoding="utf-8"?>
<!-- Generator: Adobe Illustrator 16.0.0, SVG Export Plug-In . SVG Version: 6.00 Build 0)  -->
<!DOCTYPE svg PUBLIC "-//W3C//DTD SVG 1.1//EN" "http://www.w3.org/Graphics/SVG/1.1/DTD/svg11.dtd">
<svg version="1.1" id="圖層_1" xmlns="http://www.w3.org/2000/svg" xmlns:xlink="http://www.w3.org/1999/xlink" x="0px" y="0px"
	 width="277.654px" height="38.935px" viewBox="0 0 277.654 38.935" enable-background="new 0 0 277.654 38.935"
	 xml:space="preserve">
<g>
	<path fill="#E1091D" d="M28.826,37.86c-0.012,0.971,1.215,1.075,1.957,1.075h0.399c0.074,0,0.133-0.002,0.22-0.01
		c1.754-0.09,1.741-0.752,1.741-1.065c-0.005-0.165-0.005-0.335,0-0.53v-0.08V1.691v-0.1V1.083C33.156,0.115,31.923,0,31.183,0
		h-0.399c-0.742,0-1.969,0.114-1.957,1.083c0,0.205-0.006,0.401-0.006,0.607v35.559c0,0.019,0,0.047,0.006,0.1V37.86z"/>
	<path fill="#E1091D" d="M5.798,37.86c-0.014,0.971,1.214,1.075,1.956,1.075h0.399c0.074,0,0.135-0.002,0.219-0.01
		c1.754-0.09,1.741-0.752,1.741-1.065c-0.004-0.165-0.004-0.335,0-0.53v-0.08V1.691v-0.1V1.083C10.126,0.115,8.894,0,8.154,0H7.754
		c-0.742,0-1.97,0.114-1.956,1.083c0,0.205-0.008,0.401-0.008,0.607v35.559c0,0.019,0,0.047,0.008,0.1V37.86z"/>
	<path fill="#E1091D" d="M13.472,37.86c-0.01,0.971,1.217,1.075,1.959,1.075h0.4c0.072,0,0.132-0.002,0.219-0.01
		c1.754-0.09,1.742-0.752,1.742-1.065c-0.008-0.165-0.008-0.335,0-0.53v-0.08V1.691v-0.1V1.083C17.804,0.115,16.571,0,15.831,0h-0.4
		c-0.742,0-1.969,0.114-1.959,1.083c0,0.205-0.005,0.401-0.005,0.607v35.559c0,0.019,0,0.047,0.005,0.1V37.86z"/>
	<path fill="#E1091D" d="M21.152,37.86c-0.012,0.971,1.213,1.075,1.957,1.075h0.399c0.073,0,0.134-0.002,0.218-0.01
		c1.756-0.09,1.742-0.752,1.742-1.065c-0.005-0.165-0.005-0.335,0-0.53v-0.08V1.691v-0.1V1.083C25.482,0.115,24.247,0,23.508,0
		h-0.399c-0.744,0-1.969,0.114-1.957,1.083c0,0.205-0.008,0.401-0.008,0.607v35.559c0,0.019,0,0.047,0.008,0.1V37.86z"/>
	<path fill="#E1091D" d="M1.075,17.312C0.104,17.3,0,18.526,0,19.271v0.4c0,0.073,0.003,0.132,0.01,0.218
		c0.089,1.753,0.752,1.741,1.065,1.741c0.166-0.005,0.334-0.005,0.529,0h0.08h35.559h0.1h0.509c0.969,0.012,1.082-1.22,1.082-1.959
		v-0.4c0-0.745-0.113-1.971-1.082-1.959c-0.206,0-0.401-0.008-0.608-0.008H1.685c-0.02,0-0.042,0-0.099,0.008H1.075z"/>
	<path fill="#043079" d="M92.574,2.853c-10.352,0-14.968,5.099-14.968,16.529c0,11.167,4.81,16.632,14.706,16.7h0.481
		c9.914-0.049,14.735-5.513,14.735-16.7C107.53,7.951,102.916,2.853,92.574,2.853 M92.603,31.185h-0.076
		c-5.942,0-8.259-3.325-8.259-11.856c0-8.438,2.223-11.574,8.198-11.574h0.193c5.978,0,8.2,3.137,8.2,11.574
		C100.86,27.86,98.544,31.185,92.603,31.185"/>
	<path fill="#043079" d="M51.004,33.555c2.099,1.621,4.955,2.311,9.551,2.311h0.145h0.146c4.632,0,7.496-0.689,9.577-2.309
		c3.021-2.298,3.531-5.001,3.531-10.198l0.006-18.644c0.003-0.271,0.008-0.61-0.294-0.918c-0.476-0.48-1.537-0.726-3.156-0.726
		c-1.604,0-2.656,0.244-3.131,0.724c-0.304,0.308-0.299,0.648-0.295,0.922l0.001,3.36v16.12c0.001,3.242,0.001,3.918-1.44,5.104
		c-1.329,1.081-3.335,1.22-4.934,1.22s-3.604-0.139-4.932-1.219c-1.436-1.18-1.436-1.844-1.435-5.036l0.001-19.55
		c0.004-0.273,0.008-0.612-0.295-0.921c-0.476-0.48-1.531-0.725-3.14-0.725c-1.612,0-2.67,0.245-3.144,0.726
		c-0.305,0.308-0.3,0.646-0.296,0.919l0.001,0.081v18.562C47.472,28.552,47.982,31.255,51.004,33.555"/>
	<path fill="#043079" d="M133.378,5.007c-1.71-1.271-3.75-1.722-7.797-1.722h-13.308c-0.606,0-1.099,0.491-1.099,1.094v30.173
		c0,0.607,0.492,1.102,1.099,1.102h13.96c3.79,0,6.439-0.124,8.642-1.782c2.469-1.913,2.987-5.05,2.987-7.345
		c0-3.028-1.017-5.426-2.862-6.751c-0.802-0.597-1.749-0.955-2.648-1.271l-0.605-0.212l0.578-0.276
		c2.72-1.299,3.715-3.104,3.672-6.659C135.973,9.692,135.602,6.653,133.378,5.007 M117.952,7.81h7.436
		c3.85,0,4.154,1.951,4.154,4.503c0,3.05-1.397,4.35-4.672,4.35h-6.918V7.81z M125.235,31.017h-7.288v-9.766h7.815
		c4.335,0,5.205,1.888,5.205,4.933C130.967,30.286,129.465,31.017,125.235,31.017"/>
	<path fill="#043079" d="M154.24,15.212l-0.833-2.236l-3.528-0.01l-0.829,2.232l-2.454-0.007l4.247-10.791l1.798,0.006l4.188,10.813
		L154.24,15.212z M152.006,8.856c-0.056-0.156-0.11-0.33-0.166-0.521c-0.056-0.189-0.111-0.38-0.166-0.571h-0.034
		c-0.046,0.19-0.099,0.381-0.161,0.571c-0.063,0.189-0.122,0.363-0.178,0.521l-0.778,2.147l2.251,0.007L152.006,8.856z"/>
	<path fill="#043079" d="M163.033,13.035c-0.001,0.324-0.062,0.636-0.18,0.932c-0.118,0.297-0.302,0.557-0.548,0.779
		c-0.248,0.225-0.561,0.398-0.943,0.527c-0.38,0.128-0.829,0.19-1.344,0.189c-0.525-0.001-1.002-0.067-1.427-0.197
		c-0.426-0.129-0.768-0.278-1.024-0.447l-0.212-2.151c0.324,0.28,0.712,0.509,1.166,0.684c0.452,0.175,0.92,0.263,1.401,0.264
		c0.257,0.001,0.457-0.051,0.598-0.157c0.14-0.106,0.21-0.237,0.21-0.395c0.001-0.19-0.071-0.337-0.217-0.438
		c-0.146-0.101-0.363-0.207-0.654-0.319c-0.705-0.248-1.255-0.581-1.652-0.996c-0.396-0.415-0.594-0.926-0.592-1.531
		c0.001-0.357,0.069-0.683,0.204-0.974c0.135-0.29,0.326-0.541,0.573-0.754c0.246-0.212,0.543-0.377,0.892-0.493
		c0.348-0.117,0.729-0.175,1.143-0.173c0.471,0.001,0.891,0.054,1.261,0.162c0.368,0.107,0.643,0.217,0.821,0.33L162.32,9.74
		c-0.19-0.135-0.437-0.256-0.738-0.363c-0.303-0.106-0.638-0.162-1.008-0.163c-0.225,0-0.397,0.05-0.521,0.15
		c-0.124,0.101-0.187,0.229-0.188,0.386c0,0.158,0.067,0.286,0.201,0.387c0.135,0.103,0.369,0.209,0.705,0.321
		c0.738,0.237,1.302,0.569,1.687,0.996C162.842,11.881,163.034,12.408,163.033,13.035"/>
	<path fill="#043079" d="M169.551,13.053c-0.001,0.324-0.061,0.635-0.179,0.931c-0.118,0.297-0.301,0.558-0.548,0.78
		c-0.248,0.225-0.562,0.399-0.942,0.527s-0.83,0.19-1.345,0.188c-0.525-0.001-1.002-0.066-1.428-0.196
		c-0.425-0.13-0.766-0.279-1.023-0.447l-0.212-2.151c0.323,0.281,0.712,0.509,1.166,0.683c0.453,0.176,0.919,0.264,1.401,0.265
		c0.257,0.001,0.457-0.052,0.597-0.157c0.141-0.106,0.21-0.237,0.211-0.396c0-0.189-0.071-0.336-0.217-0.437
		c-0.146-0.102-0.364-0.208-0.655-0.32c-0.704-0.249-1.254-0.581-1.651-0.996c-0.396-0.415-0.594-0.926-0.593-1.53
		c0.001-0.358,0.07-0.684,0.205-0.974c0.135-0.291,0.325-0.542,0.573-0.756c0.246-0.211,0.544-0.376,0.892-0.492
		c0.348-0.117,0.729-0.174,1.143-0.173c0.471,0.001,0.891,0.055,1.26,0.162c0.369,0.108,0.644,0.218,0.822,0.33l-0.19,1.864
		c-0.19-0.135-0.436-0.255-0.737-0.363c-0.303-0.107-0.638-0.162-1.008-0.163c-0.225,0-0.397,0.05-0.521,0.15
		s-0.186,0.229-0.186,0.386c-0.001,0.157,0.066,0.286,0.201,0.388c0.133,0.102,0.369,0.208,0.703,0.32
		c0.739,0.237,1.302,0.569,1.687,0.996C169.362,11.899,169.553,12.426,169.551,13.053"/>
	<path fill="#043079" d="M177.823,10.454c0,0.258-0.029,0.509-0.085,0.755l-0.995,0.973l-3.797-0.01
		c0.044,0.167,0.122,0.339,0.235,0.513c0.11,0.173,0.259,0.328,0.443,0.463c0.184,0.135,0.405,0.247,0.663,0.338
		c0.257,0.09,0.554,0.136,0.89,0.137c0.437,0.001,0.832-0.048,1.185-0.148c0.354-0.1,0.692-0.244,1.018-0.434l-0.224,2.031
		c-0.258,0.124-0.575,0.226-0.95,0.309c-0.376,0.084-0.815,0.124-1.319,0.122c-0.615-0.001-1.195-0.098-1.738-0.289
		c-0.543-0.192-1.015-0.468-1.418-0.828c-0.401-0.358-0.717-0.791-0.944-1.295c-0.229-0.505-0.342-1.065-0.34-1.682
		c0.001-0.616,0.109-1.17,0.322-1.662c0.216-0.492,0.504-0.911,0.869-1.258c0.364-0.346,0.786-0.61,1.263-0.794
		c0.476-0.184,0.983-0.275,1.521-0.273c0.526,0.001,1.002,0.087,1.428,0.255c0.425,0.17,0.783,0.396,1.073,0.676
		c0.291,0.281,0.514,0.604,0.67,0.967C177.747,9.684,177.824,10.062,177.823,10.454 M175.573,10.431
		c0.001-0.302-0.103-0.567-0.309-0.799c-0.206-0.229-0.488-0.346-0.848-0.347c-0.369-0.001-0.697,0.119-0.983,0.358
		c-0.286,0.24-0.475,0.557-0.565,0.948l2.688,0.008C175.567,10.566,175.573,10.51,175.573,10.431"/>
	<path fill="#043079" d="M184.293,9.698l-2.167-0.006l-0.007,2.755c-0.001,0.291,0.085,0.514,0.259,0.664
		c0.173,0.152,0.399,0.229,0.68,0.229c0.324,0.001,0.587-0.038,0.789-0.115l-0.189,2.016c-0.27,0.122-0.656,0.183-1.16,0.181
		c-0.414-0.001-0.795-0.066-1.141-0.195c-0.349-0.13-0.647-0.313-0.898-0.549c-0.251-0.236-0.444-0.514-0.578-0.833
		s-0.199-0.67-0.197-1.051l0.008-3.107l-1.294-0.004l0.005-2.017l1.345,0.004l0.004-1.479l2.354-0.884l-0.007,2.368l2.386,0.007
		L184.293,9.698z"/>
	<path fill="#043079" d="M199.483,15.333l-0.343-3.948c-0.021-0.313-0.043-0.636-0.064-0.966c-0.021-0.331-0.032-0.67-0.031-1.017
		h-0.033c-0.124,0.346-0.268,0.693-0.431,1.04c-0.164,0.347-0.324,0.677-0.481,0.99l-2.027,3.925l-1.041-0.002l-2.022-3.937
		c-0.156-0.314-0.313-0.643-0.468-0.984c-0.156-0.342-0.301-0.688-0.434-1.034h-0.034c-0.001,0.357-0.013,0.7-0.036,1.024
		s-0.046,0.638-0.069,0.94l-0.347,3.947l-2.504-0.007L190.07,4.59l2.117,0.005l2.323,4.509c0.155,0.314,0.336,0.685,0.543,1.111
		c0.205,0.426,0.381,0.818,0.525,1.177h0.033c0.136-0.357,0.294-0.735,0.474-1.133c0.181-0.396,0.366-0.779,0.558-1.149l2.331-4.495
		l2.133,0.006l0.929,10.721L199.483,15.333z"/>
	<path fill="#043079" d="M209.444,15.596c-0.762-0.059-1.299-0.346-1.61-0.861c-0.259,0.29-0.575,0.505-0.95,0.645
		c-0.377,0.139-0.771,0.207-1.187,0.206c-0.38-0.001-0.739-0.058-1.073-0.171c-0.336-0.112-0.63-0.278-0.882-0.497
		c-0.251-0.22-0.446-0.483-0.585-0.791c-0.141-0.31-0.208-0.659-0.207-1.052c0.002-0.705,0.246-1.272,0.734-1.702
		c0.489-0.431,1.108-0.684,1.859-0.76l1.512-0.147l0.001-0.269c0.001-0.235-0.091-0.426-0.275-0.572
		c-0.185-0.146-0.49-0.22-0.915-0.221c-0.438-0.001-0.856,0.048-1.261,0.147c-0.402,0.101-0.729,0.223-0.976,0.368l-0.18-1.883
		c0.292-0.156,0.673-0.284,1.144-0.384s0.941-0.148,1.412-0.146c1.063,0.003,1.902,0.268,2.518,0.796
		c0.613,0.527,0.92,1.285,0.918,2.271l-0.006,2.184c-0.001,0.337,0.076,0.597,0.233,0.782c0.157,0.185,0.368,0.301,0.637,0.346
		L209.444,15.596z M207.117,12.028l-1.024,0.099c-0.358,0.032-0.613,0.146-0.766,0.342c-0.151,0.195-0.228,0.412-0.228,0.646
		c-0.001,0.201,0.074,0.375,0.225,0.521c0.15,0.146,0.344,0.22,0.579,0.221c0.303,0.001,0.579-0.105,0.833-0.317
		c0.252-0.211,0.379-0.48,0.38-0.805L207.117,12.028z"/>
	<path fill="#043079" d="M215.627,15.376l0.012-4.535c0.001-0.279-0.094-0.527-0.283-0.739c-0.19-0.213-0.48-0.321-0.872-0.322
		c-0.381-0.001-0.685,0.105-0.908,0.316c-0.226,0.214-0.338,0.47-0.339,0.772l-0.013,4.503l-2.469-0.008l0.021-7.61l2.167,0.007
		l0.064,0.756c0.226-0.291,0.524-0.521,0.901-0.695c0.376-0.173,0.838-0.258,1.387-0.257c0.414,0.001,0.795,0.067,1.141,0.196
		c0.349,0.13,0.645,0.313,0.89,0.549c0.246,0.236,0.438,0.521,0.577,0.857c0.14,0.338,0.208,0.719,0.207,1.144l-0.013,5.074
		L215.627,15.376z"/>
	<path fill="#043079" d="M225.504,15.639c-0.762-0.059-1.299-0.346-1.61-0.861c-0.259,0.29-0.575,0.506-0.95,0.645
		c-0.377,0.139-0.771,0.208-1.186,0.207c-0.381-0.002-0.739-0.059-1.074-0.171c-0.337-0.113-0.63-0.279-0.881-0.498
		c-0.252-0.22-0.447-0.482-0.586-0.792c-0.141-0.308-0.208-0.659-0.207-1.051c0.001-0.705,0.246-1.272,0.734-1.703
		c0.489-0.429,1.108-0.683,1.858-0.759l1.513-0.147l0.001-0.269c0.001-0.235-0.091-0.426-0.275-0.572
		c-0.186-0.146-0.49-0.22-0.915-0.221c-0.438-0.001-0.856,0.048-1.261,0.148c-0.402,0.1-0.729,0.222-0.975,0.366l-0.181-1.882
		c0.292-0.155,0.673-0.284,1.144-0.384s0.941-0.147,1.412-0.146c1.063,0.003,1.902,0.268,2.518,0.796
		c0.614,0.528,0.92,1.285,0.917,2.271l-0.005,2.184c-0.001,0.337,0.076,0.597,0.233,0.782c0.156,0.185,0.368,0.301,0.637,0.346
		L225.504,15.639z M223.178,12.071l-1.025,0.099c-0.357,0.033-0.612,0.146-0.765,0.342c-0.151,0.196-0.228,0.411-0.229,0.646
		c-0.001,0.202,0.075,0.376,0.226,0.521s0.344,0.219,0.579,0.22c0.303,0,0.579-0.104,0.833-0.316
		c0.252-0.213,0.379-0.481,0.38-0.806L223.178,12.071z"/>
	<path fill="#043079" d="M233.935,16.686c0,0.392-0.089,0.756-0.263,1.091c-0.175,0.336-0.422,0.627-0.741,0.872
		c-0.319,0.246-0.704,0.438-1.153,0.577c-0.448,0.139-0.947,0.207-1.496,0.206c-0.548-0.002-1.052-0.079-1.511-0.231
		c-0.458-0.152-0.847-0.358-1.166-0.616c-0.317-0.258-0.567-0.564-0.745-0.918c-0.178-0.353-0.267-0.73-0.266-1.135
		c0.001-0.549,0.143-1.01,0.423-1.385c0.281-0.374,0.635-0.628,1.061-0.762l-0.871-0.876c0.035-0.258,0.143-0.483,0.322-0.679
		c0.179-0.196,0.364-0.35,0.555-0.461c-0.29-0.202-0.539-0.475-0.746-0.816c-0.205-0.342-0.308-0.732-0.308-1.169
		c0.002-0.414,0.073-0.795,0.215-1.142c0.141-0.347,0.346-0.646,0.615-0.896c0.269-0.252,0.598-0.447,0.984-0.586
		c0.387-0.14,0.826-0.208,1.318-0.206c0.224,0,0.426,0.016,0.605,0.043c0.179,0.029,0.353,0.065,0.521,0.11
		c0.168,0.046,0.341,0.08,0.52,0.103c0.18,0.023,0.37,0.035,0.571,0.035c0.271,0.001,0.516-0.023,0.739-0.074
		c0.225-0.049,0.422-0.118,0.589-0.208l0.163,1.933c-0.057,0.056-0.159,0.101-0.311,0.134c-0.152,0.032-0.295,0.044-0.429,0.032
		c0.089,0.157,0.133,0.376,0.132,0.655c0,0.37-0.063,0.708-0.187,1.017c-0.124,0.308-0.299,0.578-0.523,0.813
		c-0.225,0.234-0.488,0.424-0.791,0.568c-0.302,0.145-0.64,0.233-1.009,0.267c-0.157,0.011-0.285,0.038-0.387,0.082
		c-0.101,0.045-0.151,0.118-0.152,0.219c0,0.112,0.067,0.191,0.201,0.235l1.227,0.424c0.737,0.26,1.305,0.605,1.702,1.038
		C233.74,15.411,233.937,15.981,233.935,16.686 M231.717,16.713c0.001-0.201-0.071-0.389-0.217-0.563
		c-0.145-0.175-0.352-0.302-0.62-0.38l-1.008-0.288c-0.325,0.021-0.597,0.13-0.815,0.325s-0.329,0.449-0.33,0.764
		c0,0.29,0.125,0.544,0.376,0.757c0.252,0.213,0.63,0.321,1.134,0.322c0.481,0.002,0.849-0.094,1.102-0.282
		C231.59,17.178,231.717,16.96,231.717,16.713 M231.231,10.294c0-0.279-0.101-0.518-0.3-0.715c-0.202-0.196-0.459-0.295-0.772-0.295
		c-0.303-0.001-0.558,0.097-0.766,0.291c-0.207,0.195-0.312,0.435-0.313,0.714c-0.001,0.28,0.103,0.519,0.31,0.715
		c0.206,0.196,0.461,0.295,0.763,0.296c0.291,0.001,0.544-0.097,0.757-0.292S231.23,10.575,231.231,10.294"/>
	<path fill="#043079" d="M241.746,10.625c-0.001,0.258-0.029,0.511-0.086,0.755l-0.994,0.973l-3.796-0.01
		c0.044,0.168,0.122,0.339,0.234,0.513c0.109,0.175,0.259,0.328,0.443,0.463s0.404,0.248,0.662,0.339
		c0.257,0.089,0.554,0.135,0.891,0.136c0.437,0.001,0.831-0.048,1.185-0.148c0.353-0.099,0.692-0.243,1.017-0.433l-0.223,2.031
		c-0.259,0.122-0.576,0.226-0.95,0.309c-0.376,0.083-0.815,0.123-1.319,0.122c-0.616-0.002-1.196-0.098-1.738-0.29
		c-0.543-0.191-1.015-0.468-1.417-0.827s-0.718-0.791-0.946-1.296c-0.228-0.505-0.342-1.065-0.34-1.681
		c0.001-0.616,0.109-1.17,0.324-1.663c0.214-0.492,0.504-0.911,0.868-1.258c0.365-0.346,0.785-0.61,1.263-0.794
		c0.476-0.184,0.982-0.274,1.521-0.273c0.526,0.002,1.002,0.087,1.427,0.257c0.425,0.168,0.784,0.394,1.073,0.674
		c0.292,0.281,0.515,0.604,0.67,0.968C241.67,9.855,241.746,10.233,241.746,10.625 M239.495,10.603c0-0.303-0.103-0.568-0.309-0.799
		s-0.489-0.346-0.848-0.347c-0.37-0.001-0.697,0.118-0.983,0.358c-0.287,0.24-0.475,0.556-0.565,0.947l2.688,0.008
		C239.489,10.737,239.494,10.681,239.495,10.603"/>
	<path fill="#043079" d="M252.132,15.475l0.013-4.688c0.001-0.269-0.097-0.483-0.292-0.646c-0.195-0.162-0.461-0.245-0.797-0.245
		c-0.349-0.001-0.631,0.082-0.85,0.249s-0.329,0.392-0.329,0.671l-0.013,4.653l-2.47-0.005l0.013-4.688
		c0.001-0.269-0.098-0.484-0.293-0.646c-0.195-0.163-0.472-0.246-0.831-0.247c-0.335-0.001-0.612,0.083-0.832,0.25
		c-0.219,0.168-0.327,0.392-0.328,0.672l-0.014,4.653l-2.469-0.007l0.02-7.61l2.167,0.006l0.065,0.756
		c0.191-0.257,0.475-0.48,0.851-0.669c0.376-0.19,0.832-0.284,1.37-0.283c0.515,0.002,0.952,0.099,1.31,0.29s0.643,0.421,0.855,0.69
		c0.224-0.268,0.564-0.497,1.018-0.687c0.455-0.188,0.961-0.282,1.522-0.281c0.895,0.003,1.586,0.248,2.071,0.737
		c0.486,0.488,0.728,1.118,0.726,1.892l-0.013,5.191L252.132,15.475z"/>
	<path fill="#043079" d="M262.898,10.682c-0.001,0.258-0.03,0.511-0.086,0.756l-0.995,0.973l-3.796-0.011
		c0.044,0.168,0.122,0.339,0.234,0.513c0.11,0.175,0.259,0.328,0.444,0.463c0.184,0.135,0.404,0.248,0.662,0.339
		c0.257,0.09,0.554,0.135,0.89,0.136c0.438,0.001,0.832-0.048,1.185-0.148c0.354-0.1,0.692-0.244,1.018-0.433L262.23,15.3
		c-0.258,0.123-0.575,0.226-0.949,0.309c-0.377,0.083-0.816,0.123-1.32,0.122c-0.615-0.001-1.194-0.098-1.738-0.29
		c-0.542-0.191-1.015-0.467-1.417-0.827c-0.402-0.359-0.718-0.791-0.945-1.296c-0.229-0.505-0.342-1.065-0.34-1.681
		c0.002-0.616,0.109-1.17,0.323-1.663c0.215-0.492,0.504-0.911,0.868-1.257c0.365-0.347,0.786-0.611,1.263-0.795
		s0.983-0.275,1.521-0.273c0.527,0.002,1.003,0.087,1.428,0.257c0.425,0.168,0.783,0.394,1.073,0.674
		c0.291,0.281,0.515,0.604,0.67,0.968C262.822,9.912,262.899,10.29,262.898,10.682 M260.646,10.659
		c0.001-0.303-0.103-0.569-0.309-0.799c-0.206-0.23-0.488-0.346-0.847-0.348c-0.369,0-0.697,0.119-0.984,0.359
		s-0.475,0.556-0.565,0.947l2.688,0.008C260.64,10.793,260.646,10.738,260.646,10.659"/>
	<path fill="#043079" d="M268.495,15.519l0.012-4.536c0.001-0.28-0.094-0.526-0.283-0.739c-0.189-0.214-0.481-0.321-0.873-0.322
		c-0.38-0.001-0.683,0.104-0.908,0.316c-0.225,0.213-0.337,0.47-0.337,0.771l-0.013,4.503l-2.469-0.006l0.02-7.611l2.167,0.006
		l0.065,0.757c0.224-0.291,0.524-0.522,0.901-0.695c0.375-0.172,0.837-0.259,1.386-0.257c0.414,0.001,0.795,0.066,1.142,0.197
		c0.348,0.129,0.643,0.312,0.889,0.548c0.246,0.235,0.438,0.522,0.577,0.857c0.14,0.338,0.209,0.719,0.207,1.145l-0.012,5.073
		L268.495,15.519z"/>
	<path fill="#043079" d="M277.464,9.948l-2.168-0.007l-0.007,2.756c-0.001,0.292,0.086,0.513,0.259,0.664
		c0.173,0.152,0.399,0.229,0.68,0.229c0.325,0.001,0.589-0.037,0.79-0.114l-0.189,2.016c-0.271,0.121-0.657,0.182-1.16,0.18
		c-0.415,0-0.796-0.065-1.143-0.195s-0.645-0.313-0.896-0.548c-0.252-0.236-0.444-0.515-0.578-0.834
		c-0.134-0.318-0.198-0.669-0.198-1.05l0.008-3.108l-1.294-0.004l0.006-2.016l1.345,0.004l0.004-1.479l2.354-0.884l-0.007,2.369
		l2.386,0.006L277.464,9.948z"/>
	<path fill="#043079" d="M205.618,26.807c-0.375-0.656-0.309-0.705-0.871-0.33c-0.344,0.244-0.646,0.463-0.9,0.649V24.62h1.536
		c0.145,0,0.271-0.125,0.271-0.27v-0.542c0-0.145-0.126-0.271-0.271-0.271h-1.536v-3.223c0-0.362-1.083-0.618-1.083-0.121v3.344
		h-2.078c-0.146,0-0.271,0.126-0.271,0.271v0.542c0,0.145,0.126,0.27,0.271,0.27h2.078v3.203c-0.76,0.526-1.538,1.017-2.333,1.473
		c-0.351,0.199,0.133,1.178,0.514,0.948c0.616-0.369,1.221-0.765,1.819-1.162l0.006,3.279c0.104,0.454-1.304,0.339-1.405,0.332
		c-0.45-0.029-0.245,0.671-0.226,0.841c0.066,0.607,2.852,0.453,2.708-1.245v-3.873C204.079,28.271,205.866,27.24,205.618,26.807"/>
	<path fill="#043079" d="M214.478,24.561l-1.821,0.001c-0.267,0.026-0.275-0.027-0.257-0.211l0.037-3.644
		c0-0.146-0.127-0.271-0.271-0.271l-4.064,0.004c-0.915,0,0.68,3.963-1.946,4.673c-0.179,0.048-0.255,0.217-0.171,0.382
		c0.068,0.138,0.241,0.732,0.572,0.616c1.723-0.604,2.496-2.049,2.399-4.652h2.396l-0.036,2.892c0,0.846,0.498,1.294,1.355,1.294
		h1.807c0.145,0,0.271-0.126,0.271-0.27v-0.543C214.748,24.688,214.622,24.561,214.478,24.561"/>
	<path fill="#043079" d="M214.27,32.709c-1.078-0.396-2.089-0.888-3.035-1.479c1.038-1.053,1.898-2.283,2.582-3.688
		c0.299-0.595,0.007-1.005-0.664-1.114h-6.986c-0.145,0-0.271,0.127-0.271,0.271v0.481c0,0.145,0.126,0.271,0.271,0.271h6.542
		c-0.618,1.124-1.412,2.153-2.383,3.089c-0.898-0.89-1.581-1.771-2.054-2.646c-0.22-0.404-1.1,0.232-0.891,0.571
		c0.596,0.97,1.293,1.888,2.093,2.753c-0.934,0.534-2.149,0.949-3.66,1.237c-0.462,0.087-0.093,1.175,0.302,1.068
		c1.456-0.393,2.854-0.92,4.196-1.58c1.136,0.659,2.309,1.241,3.519,1.749C214.2,33.85,214.699,32.866,214.27,32.709"/>
	<path fill="#043079" d="M193.333,28.886c-0.031-0.122,0.053-0.274,0.173-0.315c0.696-0.231,1.395-0.483,2.091-0.754
		c0.412-0.161,0.645,0.812,0.32,0.955c-0.355,0.158-0.956,0.379-1.785,0.655c-0.214,0.052-0.594,0.282-0.683-0.073L193.333,28.886
		 M187.132,31.289c-0.169-0.063-0.228-0.234-0.133-0.387c0.299-0.486,0.624-1.171,0.972-2.06c0.146-0.374,1.103-0.017,0.962,0.363
		c-0.277,0.754-0.615,1.47-1.013,2.145C187.756,31.629,187.274,31.343,187.132,31.289 M184.631,31.698
		c-0.134,0.052-0.294-0.023-0.342-0.156c-0.155-0.426-0.464-1.158-0.928-2.203c-0.163-0.366,0.718-0.742,0.888-0.4
		c0.544,1.086,0.885,1.847,1.01,2.26C185.361,31.536,184.782,31.641,184.631,31.698 M183.113,32.799
		c-0.038-0.152,0.059-0.3,0.214-0.325c0.467-0.078,1.537-0.272,3.209-0.583c0.901-0.157,1.511-0.256,1.824-0.295
		c0.349-0.044,0.612,0.848,0.202,0.932c-1.911,0.39-3.589,0.701-5.032,0.937C183.19,33.518,183.153,32.959,183.113,32.799
		 M192.365,26.869c0.171-0.037,0.313,0.071,0.322,0.246c0.11,2.291,1.409,3.964,3.982,5.024c0.449,0.184-0.177,1.039-0.499,0.896
		c-2.795-1.237-4.334-3.16-4.537-5.77C191.606,26.925,192.222,26.902,192.365,26.869 M186.448,21.163l-0.038,0.068
		c-0.943,1.079-1.983,2.1-3.158,3.119c-0.313,0.271-1.02-0.551-0.691-0.816c1.191-0.96,2.267-2.055,3.229-3.286
		c0.459-0.412,0.94-0.47,1.297,0.006c0.809,1,1.512,1.719,2.108,2.165c0.346,0.261-0.363,1.083-0.678,0.826
		c-0.444-0.363-1.106-1.028-1.964-1.963C186.513,21.227,186.474,21.186,186.448,21.163 M185.733,27.452h-2.538
		c-0.142,0-0.265-0.124-0.265-0.266V26.72c0-0.142,0.123-0.266,0.265-0.266h2.538v-1.689h-1.545c-0.141,0-0.265-0.124-0.265-0.265
		v-0.468c0-0.141,0.124-0.265,0.265-0.265h3.913c0.142,0,0.265,0.124,0.265,0.265V24.5c0,0.141-0.123,0.265-0.265,0.265h-1.313
		v1.689h1.896c0.14,0,0.266,0.124,0.266,0.266v0.467c0,0.142-0.126,0.266-0.266,0.266h-1.896v4.523c0,0.141-0.124,0.265-0.265,0.265
		h-0.526c-0.14,0-0.265-0.124-0.265-0.265V27.452z M190.644,23.302h4.259V21.67h-4.259V23.302z M194.902,24.298h-4.259v1.572h4.259
		V24.298z M189.587,31.947V20.938c0-0.141,0.124-0.264,0.266-0.264h5.84c0.141,0,0.265,0.123,0.265,0.264v5.665
		c0,0.142-0.124,0.266-0.265,0.266h-5.049v4.831c0.743-0.18,1.502-0.405,2.275-0.675c0.411-0.143,0.66,0.866,0.274,0.972
		l-1.693,0.469c-0.701,0.233-1.266,0.409-1.695,0.525C189.387,33.105,189.138,31.988,189.587,31.947"/>
	<path fill="#043079" d="M221.959,33.861c-0.151,0-0.285-0.134-0.285-0.286V22.257c0-0.524,1.136-0.246,1.136,0.127v11.19
		c0,0.152-0.133,0.286-0.285,0.286H221.959"/>
	<path fill="#043079" d="M224.316,20.239c0.146,0.093,0.179,0.28,0.071,0.416c-1.13,1.445-2.656,2.663-4.569,3.661
		c-0.354,0.185-1.083-0.773-0.631-1.003c1.783-0.909,3.217-2.012,4.309-3.303C223.726,19.738,224.173,20.148,224.316,20.239"/>
	<path fill="#043079" d="M226.141,32.62h4.908v-2.512h-4.908V32.62z M225.104,29.407c0-0.146,0.128-0.274,0.273-0.274h6.434
		c0.146,0,0.275,0.128,0.275,0.274v3.916c0,0.146-0.13,0.273-0.275,0.273h-6.434c-0.146,0-0.273-0.127-0.273-0.273V29.407z"/>
	<path fill="#043079" d="M233.067,22.769v-0.003h-0.011h-0.001h-0.001h-8.938h-0.002h-0.001h-0.031v0.007
		c-0.181,0.018-0.324,0.166-0.324,0.351v0.32c0,0.186,0.144,0.335,0.324,0.351v0.008h8.985v-0.003
		c0.191-0.007,0.346-0.162,0.346-0.355v-0.32C233.412,22.931,233.258,22.776,233.067,22.769"/>
	<path fill="#043079" d="M231.804,24.698v-0.003h-0.011l0,0c-0.001,0-0.001,0-0.001,0h-6.413h-0.002h-0.002h-0.031v0.007
		c-0.181,0.018-0.324,0.166-0.324,0.351v0.32c0,0.186,0.144,0.334,0.324,0.351v0.008h6.46v-0.003
		c0.191-0.007,0.346-0.163,0.346-0.355v-0.32C232.15,24.861,231.995,24.705,231.804,24.698"/>
	<path fill="#043079" d="M231.804,20.746v-0.002h-0.011v-0.001c-0.001,0-0.001,0.001-0.001,0.001h-6.413l-0.002-0.001l-0.002,0.001
		h-0.031v0.007c-0.181,0.017-0.324,0.165-0.324,0.35v0.321c0,0.186,0.144,0.334,0.324,0.352v0.006h6.46v-0.002
		c0.191-0.007,0.346-0.162,0.346-0.355v-0.321C232.15,20.909,231.995,20.753,231.804,20.746"/>
	<path fill="#043079" d="M231.804,26.662L231.804,26.662l-0.011-0.001V26.66c-0.001,0-0.001,0.001-0.001,0.001h-6.413l-0.002-0.001
		l-0.002,0.001h-0.031v0.006c-0.181,0.018-0.324,0.166-0.324,0.35v0.322c0,0.185,0.144,0.333,0.324,0.351v0.007h6.46v-0.003
		c0.191-0.007,0.346-0.162,0.346-0.354v-0.322C232.15,26.825,231.995,26.669,231.804,26.662"/>
	<path fill="#043079" d="M172.267,29.073h1.958v-1.66h-1.958V29.073z M171.252,27.413h-1.957v1.661h1.957V27.413z M174.225,24.68
		h-1.958v1.719h1.958V24.68z M171.252,24.68h-1.957v1.719h1.957V24.68z M165.756,24.68c-0.144,0-0.271-0.127-0.271-0.27v-0.476
		c0-0.145,0.127-0.271,0.271-0.271h12.126c0.144,0,0.27,0.126,0.27,0.271v0.476c0,0.143-0.126,0.27-0.27,0.27h-2.584v1.719h3.06
		c0.144,0,0.27,0.126,0.27,0.27v0.476c0,0.144-0.126,0.27-0.27,0.27h-3.06v1.66h2.228c0.144,0,0.271,0.127,0.271,0.271v0.476
		c0,0.144-0.127,0.27-0.271,0.27h-5.259v1.244h6.388c0.144,0,0.271,0.126,0.271,0.27v0.476c0,0.144-0.127,0.27-0.271,0.27h-6.388
		v1.572c0,0.145-0.126,0.27-0.271,0.27h-0.475c-0.144,0-0.27-0.125-0.27-0.27v-1.572h-6.626c-0.143,0-0.27-0.126-0.27-0.27v-0.476
		c0-0.144,0.127-0.27,0.27-0.27h6.626v-1.244h-5.377c-0.144,0-0.271-0.126-0.271-0.27v-0.476c0-0.144,0.127-0.271,0.271-0.271h2.346
		v-1.66h-3.179c-0.144,0-0.27-0.126-0.27-0.27v-0.476c0-0.144,0.126-0.27,0.27-0.27h3.179V24.68H165.756z M173.511,21.228v-1.039
		c0-0.494,1.015-0.226,1.015,0.12v0.919h4.011c0.144,0,0.27,0.127,0.27,0.271v0.475c0,0.144-0.126,0.27-0.27,0.27h-4.011v0.979
		c0,0.144-0.126,0.271-0.27,0.271h-0.475c-0.144,0-0.271-0.127-0.271-0.271v-0.979h-3.206v0.979c0,0.144-0.126,0.271-0.269,0.271
		H169.5c-0.143,0-0.27-0.127-0.27-0.271v-0.979h-4.069c-0.144,0-0.27-0.126-0.27-0.27v-0.475c0-0.144,0.126-0.271,0.27-0.271h4.069
		v-0.919c0-0.535,1.074-0.16,1.074,0.178v0.741H173.511z"/>
	<path fill="#043079" d="M159.899,24.769c0-0.455-0.386-0.381-0.386-0.381h-5.988l0.031-0.424c0,0,0.059-0.707,0.065-1.271
		c0.008-0.563,0-1.348-0.004-1.652c-0.003-0.303-0.222-0.347-0.222-0.347s-0.144-0.063-0.503-0.132
		c-0.358-0.07-0.405,0.292-0.405,0.292v0.92c0,0.81-0.094,2.599-0.094,2.599h-5.54c-0.429,0-0.429,0.296-0.429,0.296v0.538
		c0,0.248,0.312,0.3,0.312,0.3h5.51c0,0-0.219,0.986-0.452,1.722c-0.234,0.737-0.546,1.274-0.818,1.793
		c-0.31,0.589-0.928,1.293-1.684,1.984c-0.756,0.689-1.869,1.141-2.162,1.273c-0.292,0.132-0.229,0.378-0.229,0.378l0.144,0.588
		c0.008,0.035,0.02,0.109,0.187,0.18c0.168,0.07,0.348-0.051,0.348-0.051s0.612-0.225,1.387-0.682
		c1.141-0.671,1.606-1.271,2.163-1.879c0.557-0.607,1.138-1.733,1.453-2.469c0.315-0.738,0.573-1.735,0.573-1.735
		s0.147,0.448,0.229,0.717c0.082,0.27,0.382,0.99,0.382,0.99s0.309,0.697,0.666,1.317c0.358,0.619,0.783,1.242,1.648,2.115
		s1.921,1.438,2.447,1.696c0.525,0.256,0.619-0.024,0.619-0.024s0.082-0.097,0.245-0.499c0.164-0.4-0.206-0.459-0.563-0.651
		c-0.359-0.189-0.858-0.513-0.858-0.513s-0.771-0.504-1.573-1.399c-0.804-0.896-1.247-1.855-1.517-2.443
		c-0.269-0.589-0.537-1.46-0.623-1.792s-0.413-0.262-0.413-0.262l-0.553,0.141l0.093-0.502h6.145c0.413,0,0.37-0.316,0.37-0.316
		V24.769z"/>
</g>
</svg>
