<?xml version="1.0" encoding="utf-8"?>
<svg version="1.1" xmlns="http://www.w3.org/2000/svg" xmlns:xlink="http://www.w3.org/1999/xlink" x="0px" y="0px"
	 viewBox="0 0 50 50" style="enable-background:new 0 0 50 50;" xml:space="preserve">
<g>
	<path class="flower f01" d="M33.5,14.4c-9.2,1.8-11.7,4.5-12.1,12.9c-2.8-0.8-5.2-4.5-5.1-8.1c0.1-4.3,3-7.9,7.3-8.9
		C27.4,9.3,31.7,11.1,33.5,14.4"/>
	<path class="flower f02" d="M37.4,33.4c-0.7-9.2-6.1-12-13-12c1.3-3.3,5.3-5.5,9.1-5c4.4,0.5,7.8,3.9,8.3,8.2
		C42.4,28.3,40.4,32.2,37.4,33.4"/>
	<path class="flower f03" d="M14.3,18.3c1.6,9.2,3.3,10.8,12.9,12.3c-1.2,3-4.8,5.1-8.6,4.9c-3.8-0.2-7.5-3.2-8.5-6.9
		C9.1,24.7,10.6,20.8,14.3,18.3"/>
	<path class="flower f04" d="M18.3,37.4c9-0.3,12.6-6.7,12-12.8c2.8,0.7,5.2,4.4,5.2,8.1c0,4.3-3,8-7.4,9C24.1,42.6,20.1,40.9,18.3,37.4"/>
</g>
</svg>
