<?xml version="1.0" encoding="utf-8"?>
<!-- Generator: Adobe Illustrator 22.0.0, SVG Export Plug-In . SVG Version: 6.00 Build 0)  -->
<svg version="1.1" id="圖層_1" xmlns="http://www.w3.org/2000/svg" xmlns:xlink="http://www.w3.org/1999/xlink" x="0px" y="0px"
	 viewBox="0 0 204.6 31.9" style="enable-background:new 0 0 204.6 31.9;" xml:space="preserve">
<style type="text/css">
	.st0{clip-path:url(#SVGID_2_);fill:#FFFFFF;}
</style>
<g>
	<defs>
		<rect id="SVGID_1_" y="0" width="204.6" height="31.9"/>
	</defs>
	<clipPath id="SVGID_2_">
		<use xlink:href="#SVGID_1_"  style="overflow:visible;"/>
	</clipPath>
	<path class="st0" d="M66.7,26.5c-0.8,0.1-1.2,0.1-1.6,0.1c-1.9,0.3-2.6-0.4-2.5-2.4c0.1-4.9,0-9.8,0-14.9c-2.6,0-5-0.2-7.3,0.1
		c-1.8,0.2-2.3,1.8-2.3,3.5c0,3.8,0,7.6,0,11.4v2.1h-3.7c0-5.3-0.2-10.6,0.1-15.9c0.1-2.8,3.1-5.1,6.1-5.2c6.3-0.1,12.6-0.1,18.9,0
		c3.1,0.1,5.9,2.5,6,5.5c0.2,5.1,0.1,10.3,0.1,15.6h-3.8c0-4.4,0-8.7,0-13c0-3.3-0.8-4.1-4.1-4.1c-1.8,0-3.6,0-5.7,0V26.5z"/>
	<path class="st0" d="M20.9,1.2c0.1,0.4,0.2,0.6,0.2,0.7c0.3,3.4,0.3,3.4-3,3.3c-3.7,0-7.4,0-11,0c-1.4,0-2.6,0.1-2.8,1.8
		C4.1,8.7,5,9.4,6.4,9.8c4.1,1.3,8.2,2.5,12.2,3.9c3.1,1,4.9,3.9,4.6,7c-0.3,3-2.8,5.8-5.9,5.9c-5.6,0.2-11.2,0.1-17,0.1
		C0.2,26,0.1,25.4,0,24.8c-0.1-1.4,0.3-2.2,2-2.1c4.3,0.1,8.7,0,13,0c0.5,0,0.9,0,1.4,0c1.6-0.1,2.6-0.9,2.7-2.4
		c0.2-1.4-0.6-2.4-2-2.8c-4.2-1.3-8.4-2.6-12.6-4C0.7,12.1-1,8,1,4.5C2.1,2.4,4,1.3,6.4,1.3C11.2,1.2,16,1.2,20.9,1.2"/>
	<path class="st0" d="M45.8,26.6c-4.8,0-9.4,0.2-13.9-0.1c-3.6-0.2-6.2-3.3-6.1-7c0.1-3.5,2.8-6.2,6.4-6.4c2.4-0.1,4.8,0,7.2-0.1
		c0.8,0,2.1-0.4,2.4-0.9c0.5-1.1-1.1-2.7-2.5-2.8c-2.4-0.1-4.8-0.1-7.2-0.1c-1.3,0-2.7,0-4.1,0c-0.1-0.8-0.1-1.4-0.2-1.9
		c-0.2-1.6,0.5-2.1,2-2.1c2.9,0.1,5.9,0,8.8,0c4.5,0.1,7.1,2.7,7.1,7.1C45.8,17.1,45.8,21.8,45.8,26.6 M41.8,17.1
		c-3.3,0-6.4-0.1-9.4,0c-1.6,0.1-2.6,1.1-2.7,2.7c-0.1,1.5,0.7,2.7,2.3,2.8c3.2,0.1,6.5,0,9.8,0V17.1z"/>
	<path class="st0" d="M202.3,26.6c-3.6,0-7.2,0.2-10.7,0c-3.7-0.2-6.2-2.9-6.3-6.6c-0.1-2.7-0.1-5.5,0-8.2c0.2-3.5,2.8-6.1,6.3-6.3
		c2.3-0.1,4.6-0.1,6.8,0c3.4,0.2,5.9,2.8,6.1,6.2c0.1,1.8,0,3.6,0,5.7h-7.7h-7.4c-1,3.8,0,5.1,3.7,5.2c2.1,0,4.2,0,6.2,0
		C202.9,22.7,203.1,22.9,202.3,26.6 M200.5,13.5c0.2-3.1-0.7-4.2-3.5-4.2c-1.5,0-2.9,0-4.4,0c-2.7,0.1-3.7,1.3-3.3,4.2H200.5z"/>
	<path class="st0" d="M100.8,5.5v3.8c-3.3,0-6.5,0-9.7,0c-0.6,0-1.3-0.1-1.8,0.1c-0.5,0.2-1.4,0.7-1.4,1.1c0,0.5,0.5,1.4,1,1.6
		c2.6,1,5.2,1.7,7.8,2.6c0.8,0.3,1.7,0.5,2.5,0.8c2.7,1,4.3,3.5,4,6.1c-0.4,2.8-2.4,5-5.3,5.1c-4.6,0.2-9.2,0-14,0v-3.9
		c1.4,0,2.8,0,4.2,0c2.9,0,5.8,0,8.6,0c1.1,0,2.2,0,2.4-1.5c0.2-1.5-0.8-2-2-2.3c-3.2-1-6.4-1.9-9.5-3c-2.6-0.9-4-3-3.8-5.5
		c0.2-2.4,1.9-4.7,4.3-4.8C92.2,5.4,96.4,5.5,100.8,5.5"/>
	<path class="st0" d="M159.8,26.6H156c0-3.1,0-6.1,0-9c0-1.7,0.1-3.5,0-5.2c-0.1-1.9-1.1-2.9-3.1-3c-2.1-0.1-4.3,0-6.4,0
		c-2.2,0-3.2,0.9-3.2,3.2c-0.1,3.9,0,7.9-0.1,11.8c0,0.7-0.1,1.4-0.2,2.2c-0.6,0-1.1,0-1.5,0.1c-1.7,0.2-2.3-0.3-2.3-2.2
		c0.2-3.9,0-7.9,0.1-11.8c0-4.2,2.3-6.9,6.5-7.2c2.9-0.2,5.9-0.1,8.8,0.2c2.8,0.3,5.2,3,5.3,5.7C159.9,16.4,159.8,21.4,159.8,26.6"
		/>
	<path class="st0" d="M170.5,1.3h3.6c0.1,1.3,0.2,2.5,0.3,4.1c1.6,0,3.2,0.1,4.8,0c1.7-0.1,1.5,1,1.5,2.1c0,1.2-0.1,1.9-1.6,1.9
		c-1.5-0.1-3.1,0-4.8,0c0,3.8-0.1,7.5,0.1,11.1c0.1,0.8,1.4,1.7,2.3,2c1.1,0.4,2.4,0.3,3.6,0.1c1.9-0.2,2.8,0.5,2.4,2.4
		c-0.1,0.4-0.1,0.8-0.1,1.7c-2.7-0.2-5.3-0.1-7.9-0.7c-2.3-0.5-4.1-2.3-4.1-4.7C170.4,14.8,170.5,8.1,170.5,1.3"/>
	<path class="st0" d="M128.5,4.4c-9.2,1.8-11.7,4.5-12.1,12.9c-2.8-0.8-5.2-4.5-5.1-8.1c0.1-4.3,3-7.9,7.3-8.9
		C122.4-0.7,126.7,1.1,128.5,4.4"/>
	<path class="st0" d="M132.4,23.4c-0.7-9.2-6.1-12-13-12c1.3-3.3,5.3-5.5,9.1-5c4.4,0.5,7.8,3.9,8.3,8.2
		C137.4,18.3,135.4,22.2,132.4,23.4"/>
	<path class="st0" d="M109.3,8.3c1.6,9.2,3.3,10.8,12.9,12.3c-1.2,3-4.8,5.1-8.6,4.9c-3.8-0.2-7.5-3.2-8.5-6.9
		C104.1,14.7,105.6,10.8,109.3,8.3"/>
	<path class="st0" d="M113.3,27.4c9-0.3,12.6-6.7,12-12.8c2.8,0.7,5.2,4.4,5.2,8.1c0,4.3-3,8-7.4,9
		C119.1,32.6,115.1,30.9,113.3,27.4"/>
	<rect x="163.3" y="5.5" class="st0" width="3.6" height="21.1"/>
</g>
</svg>
