<?xml version="1.0" encoding="utf-8"?>
<!-- Generator: Adobe Illustrator 16.0.0, SVG Export Plug-In . SVG Version: 6.00 Build 0)  -->
<!DOCTYPE svg PUBLIC "-//W3C//DTD SVG 1.1//EN" "http://www.w3.org/Graphics/SVG/1.1/DTD/svg11.dtd">
<svg version="1.1" id="圖層_1" xmlns="http://www.w3.org/2000/svg" xmlns:xlink="http://www.w3.org/1999/xlink" x="0px" y="0px"
	 width="138px" height="39px" viewBox="0 0 138 39" enable-background="new 0 0 138 39"
	 xml:space="preserve">
<g>
	<path fill="#E1091D" d="M28.826,37.86c-0.012,0.971,1.215,1.075,1.957,1.075h0.399c0.074,0,0.133-0.002,0.22-0.01
		c1.754-0.09,1.741-0.752,1.741-1.065c-0.005-0.165-0.005-0.335,0-0.53v-0.08V1.691v-0.1V1.083C33.156,0.115,31.923,0,31.183,0
		h-0.399c-0.742,0-1.969,0.114-1.957,1.083c0,0.205-0.006,0.401-0.006,0.607v35.559c0,0.019,0,0.047,0.006,0.1V37.86z"/>
	<path fill="#E1091D" d="M5.798,37.86c-0.014,0.971,1.214,1.075,1.956,1.075h0.399c0.074,0,0.135-0.002,0.219-0.01
		c1.754-0.09,1.741-0.752,1.741-1.065c-0.004-0.165-0.004-0.335,0-0.53v-0.08V1.691v-0.1V1.083C10.126,0.115,8.894,0,8.154,0H7.754
		c-0.742,0-1.97,0.114-1.956,1.083c0,0.205-0.008,0.401-0.008,0.607v35.559c0,0.019,0,0.047,0.008,0.1V37.86z"/>
	<path fill="#E1091D" d="M13.472,37.86c-0.01,0.971,1.217,1.075,1.959,1.075h0.4c0.072,0,0.132-0.002,0.219-0.01
		c1.754-0.09,1.742-0.752,1.742-1.065c-0.008-0.165-0.008-0.335,0-0.53v-0.08V1.691v-0.1V1.083C17.804,0.115,16.571,0,15.831,0h-0.4
		c-0.742,0-1.969,0.114-1.959,1.083c0,0.205-0.005,0.401-0.005,0.607v35.559c0,0.019,0,0.047,0.005,0.1V37.86z"/>
	<path fill="#E1091D" d="M21.152,37.86c-0.012,0.971,1.213,1.075,1.957,1.075h0.399c0.073,0,0.134-0.002,0.218-0.01
		c1.756-0.09,1.742-0.752,1.742-1.065c-0.005-0.165-0.005-0.335,0-0.53v-0.08V1.691v-0.1V1.083C25.482,0.115,24.247,0,23.508,0
		h-0.399c-0.744,0-1.969,0.114-1.957,1.083c0,0.205-0.008,0.401-0.008,0.607v35.559c0,0.019,0,0.047,0.008,0.1V37.86z"/>
	<path fill="#E1091D" d="M1.075,17.312C0.104,17.3,0,18.526,0,19.271v0.4c0,0.073,0.003,0.132,0.01,0.218
		c0.089,1.753,0.752,1.741,1.065,1.741c0.166-0.005,0.334-0.005,0.529,0h0.08h35.559h0.1h0.509c0.969,0.012,1.082-1.22,1.082-1.959
		v-0.4c0-0.745-0.113-1.971-1.082-1.959c-0.206,0-0.401-0.008-0.608-0.008H1.685c-0.02,0-0.042,0-0.099,0.008H1.075z"/>
	<path fill="#043079" d="M92.574,2.853c-10.352,0-14.968,5.099-14.968,16.529c0,11.167,4.81,16.632,14.706,16.7h0.481
		c9.914-0.049,14.735-5.513,14.735-16.7C107.53,7.951,102.916,2.853,92.574,2.853 M92.603,31.185h-0.076
		c-5.942,0-8.259-3.325-8.259-11.856c0-8.438,2.223-11.574,8.198-11.574h0.193c5.978,0,8.2,3.137,8.2,11.574
		C100.86,27.86,98.544,31.185,92.603,31.185"/>
	<path fill="#043079" d="M51.004,33.555c2.099,1.621,4.955,2.311,9.551,2.311h0.145h0.146c4.632,0,7.496-0.689,9.577-2.309
		c3.021-2.298,3.531-5.001,3.531-10.198l0.006-18.644c0.003-0.271,0.008-0.61-0.294-0.918c-0.476-0.48-1.537-0.726-3.156-0.726
		c-1.604,0-2.656,0.244-3.131,0.724c-0.304,0.308-0.299,0.648-0.295,0.922l0.001,3.36v16.12c0.001,3.242,0.001,3.918-1.44,5.104
		c-1.329,1.081-3.335,1.22-4.934,1.22s-3.604-0.139-4.932-1.219c-1.436-1.18-1.436-1.844-1.435-5.036l0.001-19.55
		c0.004-0.273,0.008-0.612-0.295-0.921c-0.476-0.48-1.531-0.725-3.14-0.725c-1.612,0-2.67,0.245-3.144,0.726
		c-0.305,0.308-0.3,0.646-0.296,0.919l0.001,0.081v18.562C47.472,28.552,47.982,31.255,51.004,33.555"/>
	<path fill="#043079" d="M133.378,5.007c-1.71-1.271-3.75-1.722-7.797-1.722h-13.308c-0.606,0-1.099,0.491-1.099,1.094v30.173
		c0,0.607,0.492,1.102,1.099,1.102h13.96c3.79,0,6.439-0.124,8.642-1.782c2.469-1.913,2.987-5.05,2.987-7.345
		c0-3.028-1.017-5.426-2.862-6.751c-0.802-0.597-1.749-0.955-2.648-1.271l-0.605-0.212l0.578-0.276
		c2.72-1.299,3.715-3.104,3.672-6.659C135.973,9.692,135.602,6.653,133.378,5.007 M117.952,7.81h7.436
		c3.85,0,4.154,1.951,4.154,4.503c0,3.05-1.397,4.35-4.672,4.35h-6.918V7.81z M125.235,31.017h-7.288v-9.766h7.815
		c4.335,0,5.205,1.888,5.205,4.933C130.967,30.286,129.465,31.017,125.235,31.017"/>
</g>
</svg>
