<svg xmlns="http://www.w3.org/2000/svg" width="43.37" height="19.094" viewBox="0 0 43.37 19.094">
  <metadata><?xpacket begin="﻿" id="W5M0MpCehiHzreSzNTczkc9d"?>
<x:xmpmeta xmlns:x="adobe:ns:meta/" x:xmptk="Adobe XMP Core 5.6-c138 79.159824, 2016/09/14-01:09:01        ">
   <rdf:RDF xmlns:rdf="http://www.w3.org/1999/02/22-rdf-syntax-ns#">
      <rdf:Description rdf:about=""/>
   </rdf:RDF>
</x:xmpmeta>
                                                                                                    
                                                                                                    
                                                                                                    
                                                                                                    
                                                                                                    
                                                                                                    
                                                                                                    
                                                                                                    
                                                                                                    
                                                                                                    
                                                                                                    
                                                                                                    
                                                                                                    
                                                                                                    
                                                                                                    
                                                                                                    
                                                                                                    
                                                                                                    
                                                                                                    
                                                                                                    
                           
<?xpacket end="w"?></metadata>
<defs>
    <style>
      .cls-1 {
        fill: #7d0000;
        fill-rule: evenodd;
      }
    </style>
  </defs>
  <path id="首頁" class="cls-1" d="M1074.66,45.1l0.36-2.037h-3.35l1.6-2.1h-4.58l-1.53,2.1h-3.68l-0.79-2.1h-4.58l0.84,2.1h-3.38l-0.36,2.037h7.82L1062.1,46.8h-6.07l-2.33,13.229H1071l2.33-13.229h-7.03l0.92-1.708h7.44Zm-6.16,5.41h-8.94l0.29-1.664h8.94Zm-0.66,3.723h-8.94l0.32-1.774h8.93Zm-0.67,3.789h-8.93l0.31-1.8h8.94Zm29.52-15,0.37-2.059h-18.97l-0.36,2.059h7.44l-0.73,1.424h-5.96l-2.1,11.914h16.98l2.1-11.914h-6.68l0.73-1.424h7.18Zm-2.63,17.061-2.81-3.066h-4.95l2.89,3.066h4.87Zm-10.65-3.066h-5.24l-3.76,3.066h5.24Zm7.3-9.242h-8.61l0.23-1.292h8.61Zm-0.57,3.241h-8.61l0.23-1.314h8.61Zm-0.58,3.263h-8.61l0.24-1.314h8.6Z" transform="translate(-1053.69 -40.969)"/>
</svg>
