<svg xmlns="http://www.w3.org/2000/svg" width="83.59" height="18.594" viewBox="0 0 83.59 18.594">
  <metadata><?xpacket begin="﻿" id="W5M0MpCehiHzreSzNTczkc9d"?>
<x:xmpmeta xmlns:x="adobe:ns:meta/" x:xmptk="Adobe XMP Core 5.6-c138 79.159824, 2016/09/14-01:09:01        ">
   <rdf:RDF xmlns:rdf="http://www.w3.org/1999/02/22-rdf-syntax-ns#">
      <rdf:Description rdf:about=""/>
   </rdf:RDF>
</x:xmpmeta>
                                                                                                    
                                                                                                    
                                                                                                    
                                                                                                    
                                                                                                    
                                                                                                    
                                                                                                    
                                                                                                    
                                                                                                    
                                                                                                    
                                                                                                    
                                                                                                    
                                                                                                    
                                                                                                    
                                                                                                    
                                                                                                    
                                                                                                    
                                                                                                    
                                                                                                    
                                                                                                    
                           
<?xpacket end="w"?></metadata>
<defs>
    <style>
      .cls-1 {
        fill: #7d0000;
        fill-rule: evenodd;
      }
    </style>
  </defs>
  <path id="活動辦法" class="cls-1" d="M1330.69,42.515h-4.14l-0.68.987h-8.33l-0.35,1.953h4.1l-0.42,2.373h-4.77l-0.35,1.995h4.76l-0.43,2.457h-4.03l-1.54,8.734h11.99l1.54-8.734h-4.03l0.43-2.457h4.75l0.35-1.995h-4.75l0.42-2.373h3.74Zm-14.09,4.85-0.99-4.829h-3.95l1.04,4.829h3.9Zm-1.04,5.333-0.84-4.535h-3.95l0.92,4.535h3.87Zm-0.26.735h-3.89l-2.95,7.58h3.88ZM1322.97,59h-4.18l0.83-4.682h4.17Zm25.01,1.89,2.7-15.306h-3.73l0.54-3.065h-3.07l-0.54,3.065h-0.57l-0.35,1.995h0.57l-1.62,9.175-1.69,3.275,0.24-1.407-3.34.147,0.13-.756h3.18l0.3-1.722h-3.17l0.14-.819h3.43l1.23-6.971h-3.43l0.13-.735h3.55l0.33-1.869h-3.55l0.13-.735h2.67l1.48-2.645h-3.83l-0.52.84h-6.34l-0.32,1.806h3.48l-0.13.735h-3.78l-0.33,1.869h3.78l-0.13.735h-3.46l-1.23,6.971h3.46l-0.14.819h-3.15l-0.31,1.722h3.15L1333.7,59l-3.73.189-0.32,1.827,10.32-.567-0.25.483h3.36l0.91-1.7,0.59,1.659h3.4Zm-2.68-1.953h-1.13l0.63-1.2,1.79-10.162h0.72Zm-5.91-7.79h-0.92l0.16-.9h0.92Zm-0.46,2.6h-0.92l0.16-.9h0.92Zm-3.84-2.6h-0.93l0.16-.9h0.93Zm-0.46,2.6h-0.93l0.16-.9h0.93Zm36.94-7.391,0.35-2.016h-1.38l-0.11-1.869h-3.36l0.13,1.869h-1.16l-0.35,2.016h5.88Zm-0.86,6.509,0.35-1.995h-1.13l1.49-3.821h-2.56l-0.91,2.288-0.05-2.288h-2.36l0.11,3.3h1.89l-0.21.525h-2.46l-0.35,1.995h1.26l-0.42,2.352h-1.2l-0.34,1.974h1.19l-0.67,3.8h3.45l0.67-3.8h1.21l0.35-1.974h-1.22l0.42-2.352h1.49Zm-7.98,8.126,2.72-15.411h-2.44l0.55-3.107h-2.94l-0.55,3.107h-0.75l0.21-1.239h-1.15l-0.09-1.869h-3.4l0.09,1.869h-1.43l-0.36,2.016h5.95l-0.13.693h-2.52l-0.91,2.352-0.05-2.352h-2.33l0.09,3.3h1.93l-0.22.525h-2.75l-0.35,1.995h1.47l-0.42,2.393-1.47.231-0.35,1.974,1.47-.231-0.14.777-2.21,2.982h3.78l1.86-2.541,0.31-1.785,1.52-.252,0.35-1.974-1.51.21,0.31-1.785h1.47l0.36-1.995h-1.1l1.3-3.3h0.82l-1.59,9.007-2.8,4.409h3.26l1.07-1.638,0.57,1.638h2.5Zm-1.52-2.016h-1.32l1.06-1.743,1.71-9.658h0.57Zm29.32,1.995-0.79-6.8h-3.99l0.54,4.766h-4.45l4.19-6.215h5.69l0.35-2.016h-4.81l0.61-3.443h3.8l0.36-2.037h-3.8l0.49-2.771h-4.07l-0.49,2.771h-3.8l-0.37,2.058h3.8l-0.6,3.422h-4.26l-0.36,2.016h3.05l-4.31,6.341-0.34,1.911h8.14l1.23-1.6,0.2,1.6h3.99Zm-11.24-14.088-0.83-4.472h-4.01l0.81,4.472h4.03Zm-0.85,5.4-0.87-4.7h-3.95l0.85,4.7h3.97Zm-0.1.672h-4.09l-3.03,8.021h4.09Z" transform="translate(-1308.47 -42.406)"/>
</svg>
