<?xml version="1.0" encoding="utf-8"?>
<!-- Generator: Adobe Illustrator 22.0.0, SVG Export Plug-In . SVG Version: 6.00 Build 0)  -->
<svg version="1.1" id="圖層_1" xmlns="http://www.w3.org/2000/svg" xmlns:xlink="http://www.w3.org/1999/xlink" x="0px" y="0px"
	 viewBox="0 0 45 45" style="enable-background:new 0 0 45 45;" xml:space="preserve">
<style type="text/css">
	.st0{fill:#FFFFFF;}
</style>
<g>
	<path class="st0" d="M21.6,28.1H38c0.4,0,0.6-0.3,0.6-0.6c0-0.4-0.3-0.6-0.6-0.6h-0.1c0-0.4,0-11.1,0-11.9c0-0.6-0.5-1.2-1.2-1.2
		h-1.8c-0.6,0-1.2,0.5-1.2,1.2v11.9h-1.9c0-0.3,0-11.6,0-11.9c0-0.6-0.5-1.2-1.2-1.2h-1.8c-0.6,0-1.2,0.5-1.2,1.2v11.9h-1.9
		c0-0.6,0-11.3,0-11.9c0-0.6-0.5-1.2-1.2-1.2h-1.8c-0.6,0-1.2,0.5-1.2,1.2v11.9h-0.1c-0.4,0-0.6,0.3-0.6,0.6
		C21,27.8,21.3,28.1,21.6,28.1L21.6,28.1z M35,15h1.5v2.2H35V15z M35,18.5h1.5v8.3H35V18.5z M29,15h1.5v8.9H29V15z M29,25.2h1.5v1.6
		H29V25.2z M23,15h1.5v5.8H23V15z M23,22.2h1.5v4.7H23V22.2z M23,22.2"/>
	<path class="st0" d="M23.1,12.7h1.4c0.4,0,0.6-0.3,0.6-0.6c0-0.4-0.3-0.6-0.6-0.6h-1.4c-0.4,0-0.6,0.3-0.6,0.6
		C22.5,12.5,22.7,12.7,23.1,12.7L23.1,12.7z M23.1,12.7"/>
	<path class="st0" d="M29.1,12.7h1.4c0.4,0,0.6-0.3,0.6-0.6c0-0.4-0.3-0.6-0.6-0.6h-1.4c-0.4,0-0.6,0.3-0.6,0.6
		C28.4,12.5,28.7,12.7,29.1,12.7L29.1,12.7z M29.1,12.7"/>
	<path class="st0" d="M35.1,12.7h1.4c0.4,0,0.6-0.3,0.6-0.6c0-0.4-0.3-0.6-0.6-0.6h-1.4c-0.4,0-0.6,0.3-0.6,0.6
		C34.4,12.5,34.7,12.7,35.1,12.7L35.1,12.7z M35.1,12.7"/>
	<path class="st0" d="M13,25.7c3.4,0,6.1-2.7,6.1-6.1c0-3.4-2.7-6.1-6.1-6.1c-3.4,0-6.1,2.7-6.1,6.1C6.9,23,9.6,25.7,13,25.7
		L13,25.7z M13,14.8c2.7,0,4.8,2.2,4.8,4.8c0,2.7-2.2,4.8-4.8,4.8s-4.8-2.2-4.8-4.8C8.2,17,10.3,14.8,13,14.8L13,14.8z M13,14.8"/>
	<path class="st0" d="M12.2,21.7c0.3,0.3,0.7,0.3,0.9,0l2.8-2.8c0.3-0.3,0.3-0.7,0-0.9c-0.3-0.3-0.7-0.3-0.9,0l-2.3,2.3l-1-1
		c-0.3-0.3-0.7-0.3-0.9,0c-0.3,0.3-0.3,0.7,0,0.9L12.2,21.7z M12.2,21.7"/>
	<path class="st0" d="M4.2,4.9c-0.6,0-1,0.4-1,1v24.4c0,0.6,0.4,1,1,1h36.5c0.6,0,1-0.4,1-1c0-1.1,0-22.3,0-24.4c0-0.6-0.4-1-1-1
		C39.3,4.9,5.7,4.9,4.2,4.9L4.2,4.9z M4.5,6.2h2.6v1.9H4.5V6.2z M40.5,30h-36V9.3h36V30z M40.5,8.1H8.4V6.2h32.1V8.1z M40.5,8.1"/>
	<path class="st0" d="M41.3,2.2H24c-0.4,0-0.6,0.3-0.6,0.6s0.3,0.6,0.6,0.6h17.3c1,0,1.8,0.8,1.8,1.8v11.5c0,0.4,0.3,0.6,0.6,0.6
		c0.4,0,0.6-0.3,0.6-0.6V5.3C44.4,3.6,43.1,2.2,41.3,2.2L41.3,2.2z M41.3,2.2"/>
	<path class="st0" d="M43.8,19.1c-0.4,0-0.6,0.3-0.6,0.6v11.1c0,1-0.8,1.8-1.8,1.8c-1,0-36.7,0-37.7,0c-1,0-1.8-0.8-1.8-1.8V5.3
		c0-1,0.8-1.8,1.8-1.8H21c0.4,0,0.6-0.3,0.6-0.6S21.4,2.2,21,2.2H3.7c-1.7,0-3.1,1.4-3.1,3.1v25.5c0,1.7,1.4,3.1,3.1,3.1h14.2v1.9
		c0,0.7-0.4,1.5-1,1.8l-1.7,1.1H14c-0.8,0-1.5,0.7-1.5,1.5v1c0,0.8,0.7,1.5,1.5,1.5h17c0.8,0,1.5-0.7,1.5-1.5v-1
		c0-0.8-0.7-1.5-1.5-1.5h-1.1l-1.7-1.1c-0.6-0.4-1-1.1-1-1.8V34h14.2c1.7,0,3.1-1.4,3.1-3.1V19.8C44.4,19.4,44.2,19.1,43.8,19.1
		L43.8,19.1z M31.2,40.3v1c0,0.1-0.1,0.2-0.2,0.2H14c-0.1,0-0.2-0.1-0.2-0.2v-1c0-0.1,0.1-0.2,0.2-0.2h17
		C31.1,40.1,31.2,40.2,31.2,40.3L31.2,40.3z M27.4,38.8L27.4,38.8l-9.9,0l0.1,0c1-0.6,1.6-1.7,1.6-2.9V34h6.7v1.9
		C25.8,37.1,26.4,38.2,27.4,38.8L27.4,38.8z M27.4,38.8"/>
</g>
</svg>
