<?xml version="1.0" encoding="utf-8"?>
<!-- Generator: Adobe Illustrator 22.0.0, SVG Export Plug-In . SVG Version: 6.00 Build 0)  -->
<svg version="1.1" id="LINE_LOGO" xmlns="http://www.w3.org/2000/svg" xmlns:xlink="http://www.w3.org/1999/xlink" x="0px" y="0px"
	 viewBox="0 0 88.3 85.1" style="enable-background:new 0 0 88.3 85.1;" xml:space="preserve">
<style type="text/css">
	.st0{fill:#005596;enable-background:new    ;}
</style>
<path class="st0" d="M44.3,1C20.2,1,0.6,16.9,0.6,36.5c0,17.5,15.5,32.2,36.5,35c1.4,0.3,3.4,0.9,3.8,2.2c0.4,1.1,0.3,2.8,0.1,4
	c0,0-0.5,3.1-0.6,3.7c-0.2,1.1-0.9,4.3,3.8,2.4c4.7-2,25.2-14.8,34.3-25.4l0,0c6.3-6.9,9.4-14,9.4-21.8C88,16.9,68.4,1,44.3,1z
	 M28.9,46.9c0,0.5-0.4,0.9-0.8,0.9H15.9l0,0c-0.2,0-0.4-0.1-0.6-0.2l0,0l0,0c-0.1-0.2-0.2-0.4-0.2-0.6l0,0V28c0-0.5,0.4-0.9,0.9-0.9
	h3.1c0.5,0,0.9,0.4,0.9,0.9v15.1h8.3c0.5,0,0.8,0.4,0.8,0.9v2.9H28.9z M36.3,46.9c0,0.5-0.4,0.8-0.9,0.8h-3.1
	c-0.5,0-0.9-0.4-0.9-0.8v-19c0-0.5,0.4-0.8,0.9-0.8h3.1c0.5,0,0.9,0.4,0.9,0.8V46.9z M57.4,46.9c0,0.5-0.4,0.8-0.9,0.8h-3.1
	c-0.1,0-0.1,0-0.2,0l0,0c0,0,0,0-0.1,0l0,0l0,0l0,0l0,0c0,0,0,0-0.1,0l0,0c-0.1-0.1-0.2-0.1-0.2-0.2l-8.7-11.8V47
	c0,0.5-0.4,0.8-0.9,0.8h-3.1c-0.5,0-0.9-0.4-0.9-0.8V28c0-0.5,0.4-0.8,0.9-0.8h3.1l0,0l0,0l0,0l0,0l0,0l0,0c0,0,0,0,0.1,0l0,0l0,0
	l0,0l0,0l0,0l0,0l0,0l0,0l0,0c0,0,0,0,0.1,0.1l0,0c0,0,0,0.1,0.1,0.1l8.7,11.8V27.9c0-0.5,0.4-0.8,0.9-0.8h3.1
	c0.5,0,0.9,0.4,0.9,0.8v19H57.4z M74.3,30.9c0,0.5-0.4,0.9-0.8,0.9h-8.3V35h8.3c0.5,0,0.8,0.4,0.8,0.9V39c0,0.5-0.4,0.9-0.8,0.9
	h-8.3v3.2h8.3c0.5,0,0.8,0.4,0.8,0.9v3.1c0,0.5-0.4,0.9-0.8,0.9H61.3l0,0c-0.2,0-0.4-0.1-0.6-0.2l0,0l0,0c-0.1-0.2-0.2-0.4-0.2-0.6
	l0,0v-19l0,0c0-0.2,0.1-0.4,0.2-0.6l0,0l0,0c0.2-0.1,0.4-0.2,0.6-0.2l0,0h12.2c0.5,0,0.8,0.4,0.8,0.9V30.9z"/>
</svg>
