<?xml version="1.0" encoding="utf-8"?>
<!-- Generator: Adobe Illustrator 22.0.0, SVG Export Plug-In . SVG Version: 6.00 Build 0)  -->
<svg version="1.1" id="圖層_1" xmlns="http://www.w3.org/2000/svg" xmlns:xlink="http://www.w3.org/1999/xlink" x="0px" y="0px"
	 viewBox="0 0 395 394" style="enable-background:new 0 0 395 394;" xml:space="preserve">
<style type="text/css">
	.st0{fill:#B4BBCC;}
	.st1{fill:#FFFFFF;}
	.st2{opacity:0.1;enable-background:new    ;}
</style>
<path class="st0" d="M339.8,3.2H54.1C25.9,3.2,3,26.1,3,54.3v285.6c0,28.2,22.9,51.1,51.1,51.1h285.6c28.2,0,51.1-22.9,51.1-51.1
	V54.3C390.9,26.1,368,3.2,339.8,3.2z"/>
<path class="st1" d="M316.4,54.9H77.5c-12.6,0-22.7,10.2-22.7,22.7v238.9c0,12.6,10.2,22.7,22.7,22.7h238.9
	c12.6,0,22.7-10.2,22.7-22.7V77.7C339.1,65.1,328.9,54.9,316.4,54.9z"/>
<path class="st2" d="M77.7,100.6c0-12.6,10.2-22.7,22.7-22.7h238.7v-0.2c0-12.6-10.2-22.7-22.7-22.7H77.5
	c-12.6,0-22.7,10.2-22.7,22.7v238.9c0,12.6,10.2,22.7,22.7,22.7h0.2V100.6z"/>
</svg>
