<svg xmlns="http://www.w3.org/2000/svg" width="45" height="45" viewBox="0 0 45 45">
  <metadata><?xpacket begin="﻿" id="W5M0MpCehiHzreSzNTczkc9d"?>
<x:xmpmeta xmlns:x="adobe:ns:meta/" x:xmptk="Adobe XMP Core 5.6-c138 79.159824, 2016/09/14-01:09:01        ">
   <rdf:RDF xmlns:rdf="http://www.w3.org/1999/02/22-rdf-syntax-ns#">
      <rdf:Description rdf:about=""/>
   </rdf:RDF>
</x:xmpmeta>
                                                                                                    
                                                                                                    
                                                                                                    
                                                                                                    
                                                                                                    
                                                                                                    
                                                                                                    
                                                                                                    
                                                                                                    
                                                                                                    
                                                                                                    
                                                                                                    
                                                                                                    
                                                                                                    
                                                                                                    
                                                                                                    
                                                                                                    
                                                                                                    
                                                                                                    
                                                                                                    
                           
<?xpacket end="w"?></metadata>
<defs>
    <style>
      .cls-1 {
        fill: #fff;
        fill-rule: evenodd;
      }
    </style>
  </defs>
  <path id="Forma_1" data-name="Forma 1" class="cls-1" d="M984,6223.5a22.492,22.492,0,0,0-33.539-19.6H947.71V6201h-4.355v9.21A22.277,22.277,0,0,0,939,6223.5a22.5,22.5,0,0,0,30.521,21.02,9.393,9.393,0,0,0,11.207-.81l-0.949-1.1a7.984,7.984,0,1,1,2.769-6.05,7.889,7.889,0,0,1-1.76,5l1.132,0.92a9.482,9.482,0,0,0,2.08-5.92,9.368,9.368,0,0,0-1.476-5.04A22.418,22.418,0,0,0,984,6223.5Zm-33.387-15.24h1.451v10.16h-1.451v-10.16Zm-2.9-2.91h1.451v13.07H947.71v-13.07Zm-2.9-2.9h1.452v15.97h-1.452v-15.97Zm15.968,42.08a21.075,21.075,0,0,1-20.3-20.31h20.3v20.31Zm0-21.76H940.48a20.816,20.816,0,0,1,2.875-9.92v7.02h15.968v-7.26h-2.9v-2.9h-2.9v-2.9h-2.9v-1.32a20.923,20.923,0,0,1,10.161-3.01v20.29Zm-7.258-4.35v-7.26h1.452v7.26h-1.452Zm2.9,0v-4.36h1.452v4.36h-1.452Zm26.111,4.35h-6.213l5.337-5.34A20.927,20.927,0,0,1,982.53,6222.77Zm-3.657-11.14-8.107,8.11,1.027,1.02,7.875-7.87a21.015,21.015,0,0,1,1.459,3.02l-6.863,6.86h-4.48l0.939-.94-1.027-1.02-1.964,1.96h-4.48l13.626-13.62A20.718,20.718,0,0,1,978.873,6211.63Zm-16.647-9.16a20.9,20.9,0,0,1,5.337.87l-5.337,5.34v-6.21Zm0,14.8,8.82-8.82-1.026-1.03-7.794,7.79v-4.48l6.863-6.86a21.615,21.615,0,0,1,3.02,1.46l-1.169,1.17,1.026,1.03,1.4-1.4a21.4,21.4,0,0,1,2.484,1.99l-13.625,13.63v-4.48Zm12.338,9.86a9.418,9.418,0,0,0-6.4,16.34,20.918,20.918,0,0,1-5.934,1.06v-20.31h20.306a21.025,21.025,0,0,1-1.061,5.94A9.392,9.392,0,0,0,974.564,6227.13Zm-26.639,8.92,8.71-8.71,1.027,1.03-8.71,8.71Zm7.768-3.12a2.18,2.18,0,1,0,2.178,2.18A2.183,2.183,0,0,0,955.693,6232.93Zm0,2.91a0.73,0.73,0,0,1-.725-0.73,0.726,0.726,0,0,1,1.451,0A0.731,0.731,0,0,1,955.693,6235.84Zm-5.806-8.71a2.175,2.175,0,1,0,2.177,2.17A2.18,2.18,0,0,0,949.887,6227.13Zm0,2.9a0.725,0.725,0,1,1,.726-0.73A0.724,0.724,0,0,1,949.887,6230.03Zm24.677,5.81a1.455,1.455,0,1,1,1.452-1.45h1.452a2.9,2.9,0,0,0-2.178-2.8v-1.56h-1.451v1.56a2.9,2.9,0,0,0,.725,5.7,1.45,1.45,0,1,1-1.451,1.45h-1.452a2.9,2.9,0,0,0,2.178,2.8v1.56h1.451v-1.56A2.9,2.9,0,0,0,974.564,6235.84Zm5.081,0H981.1v1.45h-1.452v-1.45Zm-11.613,0h1.452v1.45h-1.452v-1.45Z" transform="translate(-939 -6201)"/>
</svg>
