<svg xmlns="http://www.w3.org/2000/svg" width="48" height="43" viewBox="0 0 48 43">
  <metadata><?xpacket begin="﻿" id="W5M0MpCehiHzreSzNTczkc9d"?>
<x:xmpmeta xmlns:x="adobe:ns:meta/" x:xmptk="Adobe XMP Core 5.6-c138 79.159824, 2016/09/14-01:09:01        ">
   <rdf:RDF xmlns:rdf="http://www.w3.org/1999/02/22-rdf-syntax-ns#">
      <rdf:Description rdf:about=""/>
   </rdf:RDF>
</x:xmpmeta>
                                                                                                    
                                                                                                    
                                                                                                    
                                                                                                    
                                                                                                    
                                                                                                    
                                                                                                    
                                                                                                    
                                                                                                    
                                                                                                    
                                                                                                    
                                                                                                    
                                                                                                    
                                                                                                    
                                                                                                    
                                                                                                    
                                                                                                    
                                                                                                    
                                                                                                    
                                                                                                    
                           
<?xpacket end="w"?></metadata>
<defs>
    <style>
      .cls-1 {
        fill: #fff;
        fill-rule: evenodd;
      }
    </style>
  </defs>
  <path id="Forma_1" data-name="Forma 1" class="cls-1" d="M589,6218.74a0.791,0.791,0,0,0-.8.78v0.77a0.8,0.8,0,0,0,1.6,0v-0.77A0.791,0.791,0,0,0,589,6218.74Zm0-6.34a0.791,0.791,0,0,0-.8.78v1.81a0.8,0.8,0,0,0,1.6,0v-1.81A0.791,0.791,0,0,0,589,6212.4Zm-0.8-3.75a0.8,0.8,0,0,0,1.6,0v-1.55h-1.6a0.782,0.782,0,0,0-.8.77A0.791,0.791,0,0,0,588.2,6208.65Zm-28.6,0h1.633a0.791,0.791,0,0,0,.8-0.78,0.783,0.783,0,0,0-.8-0.77H559.6a0.782,0.782,0,0,0-.8.77A0.791,0.791,0,0,0,559.6,6208.65Zm5.719,0h1.634a0.791,0.791,0,0,0,.8-0.78,0.783,0.783,0,0,0-.8-0.77h-1.634a0.783,0.783,0,0,0-.8.77A0.791,0.791,0,0,0,565.323,6208.65Zm5.719,0h1.634a0.791,0.791,0,0,0,.8-0.78,0.783,0.783,0,0,0-.8-0.77h-1.634a0.783,0.783,0,0,0-.8.77A0.791,0.791,0,0,0,571.042,6208.65Zm11.439,0h1.633a0.791,0.791,0,0,0,.8-0.78,0.782,0.782,0,0,0-.8-0.77h-1.633a0.782,0.782,0,0,0-.8.77A0.791,0.791,0,0,0,582.481,6208.65Zm-5.719,0H578.4a0.791,0.791,0,0,0,.8-0.78,0.782,0.782,0,0,0-.8-0.77h-1.633a0.783,0.783,0,0,0-.8.77A0.791,0.791,0,0,0,576.762,6208.65Zm-22.877,0h1.633a0.791,0.791,0,0,0,.8-0.78,0.782,0.782,0,0,0-.8-0.77h-1.633a0.782,0.782,0,0,0-.8.77A0.791,0.791,0,0,0,553.885,6208.65Zm-4.885.77a1.228,1.228,0,1,0,.8-2.32h-1.6v1.55A0.782,0.782,0,0,0,549,6209.42Zm0,5.6a0.783,0.783,0,0,0,.8-0.77v-1.6a0.8,0.8,0,0,0-1.6,0v1.6A0.782,0.782,0,0,0,549,6215.02Zm0,16.8a0.791,0.791,0,0,0,.8-0.78v-1.6a0.8,0.8,0,0,0-1.6,0v1.6A0.791,0.791,0,0,0,549,6231.82Zm0-11.2a0.791,0.791,0,0,0,.8-0.78v-1.6a0.8,0.8,0,0,0-1.6,0v1.6A0.791,0.791,0,0,0,549,6220.62Zm0,5.6a0.791,0.791,0,0,0,.8-0.78v-1.6a0.8,0.8,0,0,0-1.6,0v1.6A0.791,0.791,0,0,0,549,6226.22Zm1.6,9.59a172.731,172.731,0,0,1-1.6-1.55,0.791,0.791,0,0,0-.8.78v1.55h1.6A0.791,0.791,0,0,0,550.6,6235.81Zm16-.77H565a0.775,0.775,0,1,0,0,1.55h1.6A0.775,0.775,0,1,0,566.6,6235.04Zm-12.8,1.55h1.6a0.775,0.775,0,1,0,0-1.55h-1.6A0.775,0.775,0,1,0,553.8,6236.59Zm7.2-1.55h-1.6a0.775,0.775,0,1,0,0,1.55H561A0.775,0.775,0,1,0,561,6235.04Zm10.4,0h-0.8a0.775,0.775,0,1,0,0,1.55h0.8A0.775,0.775,0,1,0,571.4,6235.04Zm21.6-31.05H545v35.71h30.4v7.3l5.6-5.43,5.6,5.43v-7.3H593v-35.71Zm-8,39.26-4-3.88-4,3.88v-8.48c0.01,0,.021.01,0.03,0.01a8.166,8.166,0,0,0,7.94,0,0.038,0.038,0,0,0,.03-0.01v8.48Zm0.234-10.55c-0.125.1-.254,0.21-0.387,0.3-0.026.02-.05,0.04-0.077,0.06-0.132.09-.267,0.18-0.4,0.26l-0.1.06c-0.134.08-.272,0.15-0.411,0.22l-0.121.06c-0.134.06-.27,0.12-0.408,0.17l-0.16.06-0.391.12-0.215.06c-0.119.03-.237,0.05-0.357,0.08-0.1.02-.206,0.03-0.31,0.04a2.7,2.7,0,0,1-.284.04c-0.2.02-.408,0.03-0.615,0.03s-0.413-.01-0.615-0.03a2.771,2.771,0,0,1-.284-0.04c-0.1-.01-0.207-0.02-0.31-0.04-0.12-.03-0.238-0.05-0.357-0.08l-0.215-.06-0.391-.12-0.16-.06c-0.137-.05-0.273-0.11-0.408-0.17l-0.121-.06c-0.14-.07-0.276-0.14-0.411-0.22l-0.094-.06c-0.138-.08-0.273-0.17-0.405-0.26l-0.077-.06c-0.132-.09-0.262-0.2-0.387-0.3a6.13,6.13,0,0,1-2.164-4.65,6.4,6.4,0,0,1,12.8,0A6.125,6.125,0,0,1,585.234,6232.7Zm6.166,5.44h-4.8v-4.55a7.633,7.633,0,0,0,2.4-5.54,8,8,0,0,0-16,0,7.633,7.633,0,0,0,2.4,5.54v4.55H546.6v-32.6h44.8v32.6Zm-36.655-24.23a2.608,2.608,0,0,0-.635,2.02,2.808,2.808,0,0,0,1.107,1.93l1.783,1.35v4.22a2.346,2.346,0,0,1-1.6-2.19,0.8,0.8,0,0,0-1.6,0,3.919,3.919,0,0,0,3.2,3.8v0.68a0.8,0.8,0,0,0,1.6,0v-0.68a3.972,3.972,0,0,0,2.255-1.3,2.6,2.6,0,0,0,.634-2.02,2.807,2.807,0,0,0-1.106-1.93l-1.783-1.34v-4.22a2.323,2.323,0,0,1,1.6,2.18,0.8,0.8,0,0,0,1.6,0,3.919,3.919,0,0,0-3.2-3.8v-0.86a0.8,0.8,0,0,0-1.6,0v0.86A3.972,3.972,0,0,0,554.745,6213.91Zm4.656,7.11a1.246,1.246,0,0,1,.5.87,1.092,1.092,0,0,1-.265.85,2.328,2.328,0,0,1-1.033.68v-3.01Zm-3.2-4.39a1.242,1.242,0,0,1-.5-0.87,1.1,1.1,0,0,1,.264-0.85,2.424,2.424,0,0,1,1.034-.68v3.01Zm8.8-1h18.4a0.782,0.782,0,0,0,.8-0.77,0.791,0.791,0,0,0-.8-0.78H565a0.791,0.791,0,0,0-.8.78A0.782,0.782,0,0,0,565,6215.63Zm0,4.66h8.8a0.775,0.775,0,1,0,0-1.55H565A0.775,0.775,0,1,0,565,6220.29Zm0,4.66h6.4a0.791,0.791,0,0,0,.8-0.78,0.783,0.783,0,0,0-.8-0.77H565a0.782,0.782,0,0,0-.8.77A0.791,0.791,0,0,0,565,6224.95Zm-11.2,5.43h16.8a0.782,0.782,0,0,0,.8-0.77,0.791,0.791,0,0,0-.8-0.78H553.8a0.791,0.791,0,0,0-.8.78A0.782,0.782,0,0,0,553.8,6230.38Z" transform="translate(-545 -6204)"/>
</svg>
