<?xml version="1.0" encoding="utf-8"?>
<!-- Generator: Adobe Illustrator 22.0.0, SVG Export Plug-In . SVG Version: 6.00 Build 0)  -->
<svg version="1.1" id="圖層_1" xmlns="http://www.w3.org/2000/svg" xmlns:xlink="http://www.w3.org/1999/xlink" x="0px" y="0px"
	 viewBox="0 0 24 24" style="enable-background:new 0 0 24 24;" xml:space="preserve">
<style type="text/css">
	.st0{clip-path:url(#SVGID_2_);fill:#046192;}
</style>
<g>
	<defs>
		<rect id="SVGID_1_" width="24" height="24"/>
	</defs>
	<clipPath id="SVGID_2_">
		<use xlink:href="#SVGID_1_"  style="overflow:visible;"/>
	</clipPath>
	<path class="st0" d="M14.8,6.3c-0.7,0-1,0-2.8,0s-2.1,0-2.8,0c-1.9,0.1-2.8,1-2.9,2.9c0,0.7,0,1,0,2.8s0,2.1,0,2.8
		c0.1,1.9,1,2.8,2.9,2.9c0.7,0,1,0,2.8,0c1.9,0,2.1,0,2.8,0c1.9-0.1,2.8-1,2.9-2.9c0-0.7,0-1,0-2.8s0-2.1,0-2.8
		C17.6,7.3,16.7,6.4,14.8,6.3 M12,15.6c-2,0-3.6-1.6-3.6-3.6c0-2,1.6-3.6,3.6-3.6s3.6,1.6,3.6,3.6C15.6,14,14,15.6,12,15.6
		 M15.7,9.1c-0.5,0-0.8-0.4-0.8-0.8c0-0.5,0.4-0.8,0.8-0.8c0.5,0,0.8,0.4,0.8,0.8C16.6,8.7,16.2,9.1,15.7,9.1 M14.3,12
		c0,1.3-1,2.3-2.3,2.3s-2.3-1-2.3-2.3s1-2.3,2.3-2.3S14.3,10.7,14.3,12 M12,0C5.4,0,0,5.4,0,12s5.4,12,12,12s12-5.4,12-12
		S18.6,0,12,0 M19,14.9c-0.1,2.5-1.5,4-4.1,4.1c-0.7,0-1,0-2.9,0s-2.1,0-2.9,0c-2.5-0.1-4-1.5-4.1-4.1c0-0.7,0-1,0-2.9
		c0-1.9,0-2.1,0-2.9c0.1-2.5,1.5-4,4.1-4.1c0.7,0,1,0,2.9,0s2.1,0,2.9,0c2.5,0.1,4,1.5,4.1,4.1c0,0.7,0,1,0,2.9
		C19,13.9,19,14.1,19,14.9"/>
</g>
</svg>
