<svg width="22" height="25" viewBox="0 0 22 25">
  <defs>
    <style>
      .stall-icon {
        fill: #ffffff;
        fill-rule: evenodd;
      }
    </style>
  </defs>
  <path class="stall-icon" d="M10.916,7.977A1.882,1.882,0,0,0,12.8,6.1v-1.2H9.034V6.1A1.882,1.882,0,0,0,10.916,7.977Zm0.79-7.6H10.125L9.185,3.762h3.463ZM13.927,6.1a1.882,1.882,0,0,0,3.764,0v-1.2H13.927V6.1h0Zm-9.787,0A1.882,1.882,0,0,0,7.9,6.1v-1.2H4.141V6.1Zm16.9-2.334L19.235,0.376H17.089l1.543,3.386h2.409Zm-3.614,0L15.847,0.376H12.873l0.941,3.386h3.614ZM11.255,16.8l-0.376-.715L10.54,16.8a0.678,0.678,0,0,1-.452.339l-0.79.113,0.6,0.565a0.565,0.565,0,0,1,.151.489L9.9,19.091l0.715-.376a0.641,0.641,0,0,1,.527,0l0.715,0.376L11.707,18.3a0.489,0.489,0,0,1,.188-0.489l0.565-.565-0.79-.113A0.527,0.527,0,0,1,11.255,16.8ZM8.018,3.762L8.959,0.376h-2.6L4.479,3.762H8.018Zm13.438,1.92V4.891H18.821V5.682a1.241,1.241,0,0,0,.376.9V17.1H15.96a0.564,0.564,0,0,1-.527-0.489,4.78,4.78,0,0,0-4.517-3.65A4.742,4.742,0,0,0,6.4,16.607a0.564,0.564,0,0,1-.527.489H2.635V6.585a1.24,1.24,0,0,0,.376-0.9V4.891H0.376V5.682a1.279,1.279,0,0,0,.753,1.166V17.1H0V25H22.456V17.1H20.7V6.848A1.279,1.279,0,0,0,21.456,5.682ZM14.078,17.247l-1.2,1.167,0.3,1.618a0.565,0.565,0,0,1-.226.527,0.6,0.6,0,0,1-.6.075l-1.468-.79-1.468.79H9.147a0.6,0.6,0,0,1-.339-0.113,0.565,0.565,0,0,1-.188-0.527l0.264-1.618L7.716,17.21a0.489,0.489,0,0,1-.15-0.565,0.527,0.527,0,0,1,.452-0.414l1.619-.226,0.753-1.468a0.526,0.526,0,0,1,.489-0.339,0.638,0.638,0,0,1,.527.339l0.715,1.468,1.619,0.226A0.631,0.631,0,0,1,14.078,17.247ZM5.119,0.376H3.049L0.866,3.762H3.2Z"/>
</svg>
